<?xml version="1.0" encoding="UTF-8"?>
<svg version="1.1" xmlns="http://www.w3.org/2000/svg" width="234" height="231">
<path d="M0 0 C77.22 0 154.44 0 234 0 C234 76.23 234 152.46 234 231 C156.78 231 79.56 231 0 231 C0 154.77 0 78.54 0 0 Z " fill="#070707" transform="translate(0,0)"/>
<path d="M0 0 C2.125 0.375 2.125 0.375 4 1 C3.45365176 6.26777556 1.64305551 10.04609491 -0.8125 14.625 C-7.47463341 27.53537791 -12.8843043 42.26159499 -12 57 C-11.67 55.68 -11.34 54.36 -11 53 C-8.36 53 -5.72 53 -3 53 C-3.55145271 58.23880078 -4.42922093 62.97350697 -6 68 C-5.01 68 -4.02 68 -3 68 C-2.34 59.09 -1.68 50.18 -1 41 C1.97 41 4.94 41 8 41 C8.495 47.435 8.495 47.435 9 54 C9.99 53.34 10.98 52.68 12 52 C18.1943734 52.22122762 18.1943734 52.22122762 20.875 54.8125 C21.94869969 56.9002494 22.47583212 58.72701748 23 61 C23.40992187 60.43410156 23.81984375 59.86820313 24.2421875 59.28515625 C24.78101562 58.55167969 25.31984375 57.81820312 25.875 57.0625 C26.40867187 56.33160156 26.94234375 55.60070312 27.4921875 54.84765625 C29 53 29 53 31 52 C33.6723621 51.86584528 36.32250488 51.95681459 39 52 C39.12117188 51.37351563 39.24234375 50.74703125 39.3671875 50.1015625 C39.53476563 49.28429688 39.70234375 48.46703125 39.875 47.625 C40.03742188 46.81289063 40.19984375 46.00078125 40.3671875 45.1640625 C41 43 41 43 43 41 C43.226875 39.989375 43.45375 38.97875 43.6875 37.9375 C45.08645545 32.71039516 48.50398046 29.00932399 52 25 C52.88171875 23.97519531 52.88171875 23.97519531 53.78125 22.9296875 C64.004663 11.88320311 77.41177291 5.39344152 92.390625 4.66015625 C111.42259523 4.14508045 125.51620294 8.13873558 139.6796875 21.55078125 C148.31777142 30.66875872 154.06437648 40.36908248 155 53 C154.01 53.33 153.02 53.66 152 54 C152.33 54.61875 152.66 55.2375 153 55.875 C154.42810682 60.33783382 154.12475328 64.32175185 154 69 C149.38 69 144.76 69 140 69 C140.66 70.65 141.32 72.3 142 74 C142.99 74.33 143.98 74.66 145 75 C145 73.68 145 72.36 145 71 C147.97 71 150.94 71 154 71 C153.68031467 74.51653861 153.37757864 76.53431968 151.125 79.3125 C147.67846408 82.04945499 144.35099931 82.39549723 140.00390625 82.35546875 C136.5749432 81.74721215 135.04350847 79.66275346 133 77 C131.78359674 73.35079022 131.70039861 69.92920257 131.625 66.125 C131.56892578 65.06345703 131.56892578 65.06345703 131.51171875 63.98046875 C131.44386466 59.93184166 131.8110925 58.23198087 134.3984375 55.0546875 C137.99014549 52.2179932 139.62459122 51.87980245 144.125 51.9375 C145.03507813 51.94652344 145.94515625 51.95554688 146.8828125 51.96484375 C147.58148438 51.97644531 148.28015625 51.98804688 149 52 C145.56679049 37.84553973 137.57790838 25.90238262 125.0703125 18.20703125 C124.04550781 17.60955078 124.04550781 17.60955078 123 17 C122.0925 16.443125 121.185 15.88625 120.25 15.3125 C106.59445301 9.79775987 90.82516905 8.93711849 76.9296875 14.15234375 C65.84722835 19.26841504 58.03249279 27.19201672 51 37 C50.236875 37.94875 49.47375 38.8975 48.6875 39.875 C45.52242681 45.73624665 44.25206687 52.16099035 45.875 58.6875 C46.24625 59.780625 46.6175 60.87375 47 62 C47.495 57.05 47.495 57.05 48 52 C48.99 51.67 49.98 51.34 51 51 C51.81043629 49.20014245 51.81043629 49.20014245 52.3125 47 C55.43776347 36.87094096 62.86811558 28.16191251 71.58984375 22.2421875 C74 21 74 21 77 21 C77.495 23.475 77.495 23.475 78 26 C77.43152344 26.4125 76.86304688 26.825 76.27734375 27.25 C68.46021923 33.09653052 61.32178764 39.55807027 58 49 C57.65987041 51.83690837 57.65987041 51.83690837 58 54 C61.465 53.505 61.465 53.505 65 53 C65 55.64 65 58.28 65 61 C63.02 61.33 61.04 61.66 59 62 C58.67 68.6 58.34 75.2 58 82 C55.03 82 52.06 82 49 82 C47.03177114 80.03177114 47.33751619 76.65191291 47 74 C46.4225 74.94875 45.845 75.8975 45.25 76.875 C42.2 81.11111111 42.2 81.11111111 39 82 C34.68864044 82.40227696 31.72758227 82.48505485 28 80 C26.68 80 25.36 80 24 80 C24.87249291 92.50573165 31.3697456 105.46199262 40.24609375 114.21484375 C42 116 42 116 42 118 C42.556875 118.226875 43.11375 118.45375 43.6875 118.6875 C46.6278734 120.35636058 48.6502353 122.58788665 51 125 C51.01417969 123.91460937 51.02835937 122.82921875 51.04296875 121.7109375 C51.08989582 120.26558387 51.13814305 118.82027269 51.1875 117.375 C51.19620117 116.30572266 51.19620117 116.30572266 51.20507812 115.21484375 C51.43784772 109.57664701 52.82347173 106.84824221 57 103 C63.10169492 103.10169492 63.10169492 103.10169492 65 105 C65.33 100.71 65.66 96.42 66 92 C68.97 92 71.94 92 75 92 C75 105.2 75 118.4 75 132 C71.33333333 132 67.66666667 132 64 132 C63.67 132.33 63.34 132.66 63 133 C58.94799606 133.2701336 56.52475106 132.932928 53 131 C52.2575 130.9175 51.515 130.835 50.75 130.75 C46.52776981 129.59848268 43.1803621 126.97517745 40 124 C40 123.34 40 122.68 40 122 C38.515 121.505 38.515 121.505 37 121 C28.59960612 111.8374402 17 94.89227637 17 82 C14.525 82.495 14.525 82.495 12 83 C15.76970452 97.48360159 21.76538941 110.9187764 32 122 C32.78375 122.85207031 33.5675 123.70414062 34.375 124.58203125 C39.23930886 129.65155314 44.12946459 133.7205565 50.1640625 137.33203125 C52 139 52 139 52.2734375 141.69921875 C52.18320313 142.45847656 52.09296875 143.21773437 52 144 C40.38770761 142.73016659 30.46218439 130.48861966 23 122 C20.32955534 118.48423473 18.100065 114.87959376 16 111 C15.46890625 110.03320312 14.9378125 109.06640625 14.390625 108.0703125 C10.20729742 100.09713865 5.56566316 91.20459997 6 82 C4.02 82 2.04 82 0 82 C4.68436814 99.47766142 10.72355488 113.66553587 22 128 C22.4434375 128.6084375 22.886875 129.216875 23.34375 129.84375 C27.18538721 134.80976883 32.1694925 138.37191376 37.23876953 142.00585938 C40.07218032 144.11011164 41.81237697 145.4203646 42.91796875 148.8359375 C42.94503906 149.55007812 42.97210938 150.26421875 43 151 C41.34375 151.765625 41.34375 151.765625 39 152 C36.34375 150.234375 36.34375 150.234375 33.5 147.75 C32.5615625 146.94046875 31.623125 146.1309375 30.65625 145.296875 C29.7796875 144.53890625 28.903125 143.7809375 28 143 C27.2265625 142.44828125 26.453125 141.8965625 25.65625 141.328125 C25.1096875 140.88984375 24.563125 140.4515625 24 140 C24 139.34 24 138.68 24 138 C23.34 138 22.68 138 22 138 C18.76334208 134.53262308 15.90702421 130.74512839 13 127 C12.37222656 126.19820313 11.74445313 125.39640625 11.09765625 124.5703125 C0.84082369 110.75498702 -6.59714823 92.28600319 -7 75 C-7.66 75 -8.32 75 -9 75 C-9.13277344 75.80824219 -9.26554687 76.61648437 -9.40234375 77.44921875 C-9.57894531 78.51785156 -9.75554688 79.58648437 -9.9375 80.6875 C-10.11152344 81.74324219 -10.28554688 82.79898438 -10.46484375 83.88671875 C-10.93167121 86.60249604 -11.44422616 89.30124235 -12 92 C-14.97 92 -17.94 92 -21 92 C-20.86980469 91.35417969 -20.73960938 90.70835938 -20.60546875 90.04296875 C-19.09364511 79.71452873 -22.03874321 70.79571451 -25 61 C-25.33 62.32 -25.66 63.64 -26 65 C-28.97 65 -31.94 65 -35 65 C-35 63.02 -35 61.04 -35 59 C-36.485 59.495 -36.485 59.495 -38 60 C-38 64.62 -38 69.24 -38 74 C-37.01 74.33 -36.02 74.66 -35 75 C-34.67 73.02 -34.34 71.04 -34 69 C-31.69 69 -29.38 69 -27 69 C-26.67849057 73.09924523 -26.58615163 75.34355086 -28.8125 78.875 C-31.61367969 81.59614598 -33.46058063 81.93893366 -37.3125 82.375 C-42.20301701 81.87765929 -43.57084492 80.42915508 -47 77 C-48.55010133 73.89979734 -48.30795676 70.65092097 -48.375 67.25 C-48.41238281 66.54617187 -48.44976562 65.84234375 -48.48828125 65.1171875 C-48.55537242 61.10662643 -48.17305918 58.70975923 -45.6015625 55.546875 C-41.90390066 51.92694178 -40.11220428 51.88640076 -34.97265625 51.8671875 C-33 52 -33 52 -30 53 C-29.97873047 52.03126953 -29.97873047 52.03126953 -29.95703125 51.04296875 C-29.13291785 34.76116086 -24.11143694 16.6671554 -15 3 C-12.375 2.8125 -12.375 2.8125 -10 3 C-10.55328981 7.45266558 -11.70750764 10.77029839 -13.75 14.75 C-19.309912 26.44452644 -22.31742214 39.19231778 -24 52 C-22.02 52 -20.04 52 -18 52 C-18.04125 50.865625 -18.0825 49.73125 -18.125 48.5625 C-18.02592576 34.29580955 -10.36526523 10.36526523 0 0 Z " fill="#1F1F1F" transform="translate(65,13)"/>
<path d="M0 0 C33 0 66 0 100 0 C97.33923635 1.77384243 94.70725276 3.21488995 91.875 4.6875 C86.44093156 7.63065464 81.745893 11.06370051 77 15 C76.44570312 15.43183594 75.89140625 15.86367187 75.3203125 16.30859375 C70.65707941 19.99327275 65.9075618 24.2773146 64 30 C63.34 30 62.68 30 62 30 C61.72800781 30.71800781 61.45601563 31.43601562 61.17578125 32.17578125 C60.01157464 34.97219778 58.64016828 37.5313018 57.1875 40.1875 C54.06619987 46.21950651 52.42739043 52.30157532 51.17651367 58.9440918 C50.65906506 61.21332212 50.18829822 62.99495754 49 65 C46.32939164 66.63412288 44.08454 67.21787122 41 68 C41 63.38 41 58.76 41 54 C38.03 54 35.06 54 32 54 C32.020625 55.44375 32.04125 56.8875 32.0625 58.375 C32.07327739 66.59815047 31.50543172 74.79576006 31 83 C30.01 82.67 29.02 82.34 28 82 C27.34 82.66 26.68 83.32 26 84 C26.68804496 77.80759538 28.28048715 71.98044406 30 66 C27.36 66 24.72 66 22 66 C21.67 68.31 21.34 70.62 21 73 C20.67 73 20.34 73 20 73 C18.16334345 55.57217007 25.30871278 36.06073204 34.21484375 21.3046875 C36.31685183 18.03944736 36.31685183 18.03944736 36 14 C34.05695223 14.25614332 34.05695223 14.25614332 32 15 C30.47212969 17.47980513 29.21829468 19.81184455 28 22.4375 C27.4745459 23.53674805 27.4745459 23.53674805 26.93847656 24.65820312 C25.94114796 26.76439755 24.96681912 28.87966201 24 31 C23.58234375 31.89847656 23.1646875 32.79695313 22.734375 33.72265625 C18.47539983 43.5757615 16.1720881 54.36833219 15 65 C13.02 65 11.04 65 9 65 C9.32227844 50.0579996 13.88876409 36.27873285 20.546875 23.0390625 C21.70132932 20.62463921 22.5117086 18.60850404 23 16 C19.32809324 16.34931734 19.32809324 16.34931734 16.62890625 18.65234375 C10.7425513 31.26596151 5.48870459 45.45871556 4.4375 59.4375 C4.10351201 63.79297597 4.10351201 63.79297597 3 66 C2.27554688 65.95359375 1.55109375 65.9071875 0.8046875 65.859375 C-0.16210938 65.82328125 -1.12890625 65.7871875 -2.125 65.75 C-3.07632812 65.70359375 -4.02765625 65.6571875 -5.0078125 65.609375 C-8.81669349 66.10661795 -10.96773 67.7145502 -14 70 C-13.9449055 47.93465214 -8.37747421 24.56621131 4 6 C4 5.01 4 4.02 4 3 C2.68 2.67 1.36 2.34 0 2 C0 1.34 0 0.68 0 0 Z " fill="#080808" transform="translate(32,0)"/>
<path d="M0 0 C18.15 0 36.3 0 55 0 C55 17.82 55 35.64 55 54 C36.85 54 18.7 54 0 54 C0 36.18 0 18.36 0 0 Z " fill="#282828" transform="translate(13,166)"/>
<path d="M0 0 C8.20751834 7.04460021 14.61165644 15.46305204 18.1171875 25.7734375 C18.15823784 27.43959855 18.16519018 29.10746225 18.1171875 30.7734375 C17.44171875 30.82242188 16.76625 30.87140625 16.0703125 30.921875 C15.17828125 30.99664062 14.28625 31.07140625 13.3671875 31.1484375 C12.48546875 31.21804687 11.60375 31.28765625 10.6953125 31.359375 C8.06444345 31.78190851 6.3462266 32.32651738 4.1171875 33.7734375 C2.34990892 36.8068842 2.34990892 36.8068842 1.1171875 39.7734375 C0.7871875 39.7734375 0.4571875 39.7734375 0.1171875 39.7734375 C0.1171875 36.8034375 0.1171875 33.8334375 0.1171875 30.7734375 C-3.96245531 32.07498756 -3.96245531 32.07498756 -7.8828125 33.7734375 C-7.8828125 32.7834375 -7.8828125 31.7934375 -7.8828125 30.7734375 C-11.1828125 30.7734375 -14.4828125 30.7734375 -17.8828125 30.7734375 C-19.70370729 27.13164793 -18.93402363 22.76790602 -18.8828125 18.7734375 C-22.5128125 18.7734375 -26.1428125 18.7734375 -29.8828125 18.7734375 C-29.8828125 22.7334375 -29.8828125 26.6934375 -29.8828125 30.7734375 C-32.5228125 30.7734375 -35.1628125 30.7734375 -37.8828125 30.7734375 C-37.94339844 31.36511719 -38.00398438 31.95679688 -38.06640625 32.56640625 C-38.50293621 36.68321958 -38.96952596 40.72888283 -39.8828125 44.7734375 C-40.5428125 44.7734375 -41.2028125 44.7734375 -41.8828125 44.7734375 C-42.8728125 38.3384375 -42.8728125 38.3384375 -43.8828125 31.7734375 C-46.8528125 31.2784375 -46.8528125 31.2784375 -49.8828125 30.7734375 C-45.94318195 26.21823967 -42.61352346 24.61892069 -36.8828125 22.7734375 C-36.8828125 21.4534375 -36.8828125 20.1334375 -36.8828125 18.7734375 C-44.34304698 19.6196215 -48.7914599 22.29138158 -53.8828125 27.7734375 C-54.5428125 28.7634375 -55.2028125 29.7534375 -55.8828125 30.7734375 C-59.5078125 30.9609375 -59.5078125 30.9609375 -62.8828125 30.7734375 C-58.09410511 21.90972431 -51.42544797 15.34701704 -41.8828125 11.7734375 C-38.3828125 11.0234375 -38.3828125 11.0234375 -35.8828125 10.7734375 C-35.8828125 9.4534375 -35.8828125 8.1334375 -35.8828125 6.7734375 C-44.82923322 7.1175306 -53.20326659 10.89035907 -59.7578125 17.0234375 C-62.96203992 20.50832718 -65.21190694 24.47055183 -67.42578125 28.63671875 C-69.03392452 30.99504145 -70.2544448 31.75473396 -72.8828125 32.7734375 C-73.77483508 29.78569922 -74.02339792 28.17685654 -72.984375 25.1953125 C-68.85393112 17.72117596 -63.87799995 10.35885098 -56.10546875 6.3359375 C-55.00525391 5.5625 -55.00525391 5.5625 -53.8828125 4.7734375 C-53.46500371 2.14649328 -53.46500371 2.14649328 -53.8828125 -0.2265625 C-66.65477619 5.78199725 -73.73548546 14.89684446 -78.8828125 27.7734375 C-78.8828125 28.7634375 -78.8828125 29.7534375 -78.8828125 30.7734375 C-80.2028125 30.7734375 -81.5228125 30.7734375 -82.8828125 30.7734375 C-82.8828125 36.3834375 -82.8828125 41.9934375 -82.8828125 47.7734375 C-83.2128125 47.7734375 -83.5428125 47.7734375 -83.8828125 47.7734375 C-88.31827947 27.00305186 -88.31827947 27.00305186 -82.3203125 17.3359375 C-72.88775252 4.17636602 -61.37372036 -7.53248135 -44.8828125 -10.6015625 C-28.29762041 -12.69358283 -13.45658298 -10.3932958 0 0 Z " fill="#070707" transform="translate(195.8828125,34.2265625)"/>
<path d="M0 0 C9.9816255 8.52947477 18.29539081 19.23712539 20.05078125 32.5546875 C20.13328125 33.6684375 20.21578125 34.7821875 20.30078125 35.9296875 C19.31078125 36.2596875 18.32078125 36.5896875 17.30078125 36.9296875 C17.63078125 37.5484375 17.96078125 38.1671875 18.30078125 38.8046875 C19.72888807 43.26752132 19.42553453 47.25143935 19.30078125 51.9296875 C14.68078125 51.9296875 10.06078125 51.9296875 5.30078125 51.9296875 C5.96078125 53.5796875 6.62078125 55.2296875 7.30078125 56.9296875 C8.78578125 57.4246875 8.78578125 57.4246875 10.30078125 57.9296875 C10.30078125 56.6096875 10.30078125 55.2896875 10.30078125 53.9296875 C13.27078125 53.9296875 16.24078125 53.9296875 19.30078125 53.9296875 C18.98109592 57.44622611 18.67835989 59.46400718 16.42578125 62.2421875 C12.97924533 64.97914249 9.65178056 65.32518473 5.3046875 65.28515625 C1.87572445 64.67689965 0.34428972 62.59244096 -1.69921875 59.9296875 C-2.91562201 56.28047772 -2.99882014 52.85889007 -3.07421875 49.0546875 C-3.13029297 47.99314453 -3.13029297 47.99314453 -3.1875 46.91015625 C-3.25535409 42.86152916 -2.88812625 41.16166837 -0.30078125 37.984375 C3.29092674 35.1476807 4.92537247 34.80948995 9.42578125 34.8671875 C10.33585937 34.87621094 11.2459375 34.88523438 12.18359375 34.89453125 C12.88226563 34.90613281 13.5809375 34.91773438 14.30078125 34.9296875 C10.86757174 20.77522723 2.87868963 8.83207012 -9.62890625 1.13671875 C-10.31210938 0.73839844 -10.9953125 0.34007812 -11.69921875 -0.0703125 C-13.06046875 -0.905625 -13.06046875 -0.905625 -14.44921875 -1.7578125 C-28.10476574 -7.27255263 -43.8740497 -8.13319401 -57.76953125 -2.91796875 C-68.8519904 2.19810254 -76.66672596 10.12170422 -83.69921875 19.9296875 C-84.84390625 21.3528125 -84.84390625 21.3528125 -86.01171875 22.8046875 C-89.17679194 28.66593415 -90.44715188 35.09067785 -88.82421875 41.6171875 C-88.45296875 42.7103125 -88.08171875 43.8034375 -87.69921875 44.9296875 C-87.36921875 41.6296875 -87.03921875 38.3296875 -86.69921875 34.9296875 C-85.21421875 34.4346875 -85.21421875 34.4346875 -83.69921875 33.9296875 C-82.88878246 32.12982995 -82.88878246 32.12982995 -82.38671875 29.9296875 C-79.26145528 19.80062846 -71.83110317 11.09160001 -63.109375 5.171875 C-60.69921875 3.9296875 -60.69921875 3.9296875 -57.69921875 3.9296875 C-57.20421875 6.4046875 -57.20421875 6.4046875 -56.69921875 8.9296875 C-57.26769531 9.3421875 -57.83617187 9.7546875 -58.421875 10.1796875 C-66.23899952 16.02621802 -73.37743111 22.48775777 -76.69921875 31.9296875 C-77.03934834 34.76659587 -77.03934834 34.76659587 -76.69921875 36.9296875 C-74.38921875 36.5996875 -72.07921875 36.2696875 -69.69921875 35.9296875 C-69.69921875 38.5696875 -69.69921875 41.2096875 -69.69921875 43.9296875 C-72.66921875 44.4246875 -72.66921875 44.4246875 -75.69921875 44.9296875 C-76.02921875 51.5296875 -76.35921875 58.1296875 -76.69921875 64.9296875 C-79.66921875 64.9296875 -82.63921875 64.9296875 -85.69921875 64.9296875 C-87.66744761 62.96145864 -87.36170256 59.58160041 -87.69921875 56.9296875 C-88.27671875 57.8784375 -88.85421875 58.8271875 -89.44921875 59.8046875 C-92.49921875 64.04079861 -92.49921875 64.04079861 -95.69921875 64.9296875 C-102.61686581 65.58851103 -102.61686581 65.58851103 -106.57421875 63.1796875 C-111.51684944 57.94631383 -111.26854557 52.45925764 -111.09375 45.5234375 C-110.55616466 40.62662052 -109.46846117 38.98097899 -105.69921875 35.9296875 C-102.48470606 34.32243115 -99.26309339 34.87220565 -95.69921875 34.9296875 C-95.57804687 34.30320313 -95.456875 33.67671875 -95.33203125 33.03125 C-95.16445312 32.21398438 -94.996875 31.39671875 -94.82421875 30.5546875 C-94.66179687 29.74257813 -94.499375 28.93046875 -94.33203125 28.09375 C-93.69921875 25.9296875 -93.69921875 25.9296875 -91.69921875 23.9296875 C-91.35890625 22.41375 -91.35890625 22.41375 -91.01171875 20.8671875 C-89.6127633 15.64008266 -86.19523829 11.93901149 -82.69921875 7.9296875 C-82.11140625 7.24648438 -81.52359375 6.56328125 -80.91796875 5.859375 C-59.68189464 -17.08638304 -24.23285207 -18.58670275 0 0 Z " fill="#212020" transform="translate(199.69921875,30.0703125)"/>
<path d="M0 0 C2.125 0.375 2.125 0.375 4 1 C3.45365176 6.26777556 1.64305551 10.04609491 -0.8125 14.625 C-7.47463341 27.53537791 -12.8843043 42.26159499 -12 57 C-11.67 55.68 -11.34 54.36 -11 53 C-8.36 53 -5.72 53 -3 53 C-3.62540452 59.55516594 -5.13265126 65.61403714 -6.9375 71.9375 C-8.81829807 78.59579975 -10.56281341 85.23064289 -12 92 C-14.97 92 -17.94 92 -21 92 C-20.86980469 91.35417969 -20.73960938 90.70835938 -20.60546875 90.04296875 C-19.09364511 79.71452873 -22.03874321 70.79571451 -25 61 C-25.33 62.32 -25.66 63.64 -26 65 C-28.97 65 -31.94 65 -35 65 C-35 63.02 -35 61.04 -35 59 C-36.485 59.495 -36.485 59.495 -38 60 C-38 64.62 -38 69.24 -38 74 C-37.01 74.33 -36.02 74.66 -35 75 C-34.67 73.02 -34.34 71.04 -34 69 C-31.69 69 -29.38 69 -27 69 C-26.67849057 73.09924523 -26.58615163 75.34355086 -28.8125 78.875 C-31.61367969 81.59614598 -33.46058063 81.93893366 -37.3125 82.375 C-42.20301701 81.87765929 -43.57084492 80.42915508 -47 77 C-48.55010133 73.89979734 -48.30795676 70.65092097 -48.375 67.25 C-48.41238281 66.54617187 -48.44976562 65.84234375 -48.48828125 65.1171875 C-48.55537242 61.10662643 -48.17305918 58.70975923 -45.6015625 55.546875 C-41.90390066 51.92694178 -40.11220428 51.88640076 -34.97265625 51.8671875 C-33 52 -33 52 -30 53 C-29.97873047 52.03126953 -29.97873047 52.03126953 -29.95703125 51.04296875 C-29.13291785 34.76116086 -24.11143694 16.6671554 -15 3 C-12.375 2.8125 -12.375 2.8125 -10 3 C-10.55328981 7.45266558 -11.70750764 10.77029839 -13.75 14.75 C-19.309912 26.44452644 -22.31742214 39.19231778 -24 52 C-22.02 52 -20.04 52 -18 52 C-18.04125 50.865625 -18.0825 49.73125 -18.125 48.5625 C-18.02592576 34.29580955 -10.36526523 10.36526523 0 0 Z " fill="#222222" transform="translate(65,13)"/>
<path d="M0 0 C3.63 0 7.26 0 11 0 C11.495 5.94 11.495 5.94 12 12 C15.3 12 18.6 12 22 12 C22.495 12.99 22.495 12.99 23 14 C23.66 13.34 24.32 12.68 25 12 C27.625 11.875 27.625 11.875 30 12 C30 14.97 30 17.94 30 21 C27.69 21.33 25.38 21.66 23 22 C22.67 28.6 22.34 35.2 22 42 C18.52078265 42.02683201 15.04176961 42.0467567 11.5625 42.0625 C10.07266602 42.07506836 10.07266602 42.07506836 8.55273438 42.08789062 C7.13637695 42.09272461 7.13637695 42.09272461 5.69140625 42.09765625 C4.81685791 42.10289307 3.94230957 42.10812988 3.04125977 42.11352539 C1 42 1 42 0 41 C-0.23192865 39.48530552 -0.41215238 37.96245438 -0.5625 36.4375 C-0.64628906 35.61121094 -0.73007813 34.78492188 -0.81640625 33.93359375 C-0.87699219 33.29550781 -0.93757813 32.65742187 -1 32 C-1.66 32.99 -2.32 33.98 -3 35 C-3.66 35 -4.32 35 -5 35 C-5.33 36.98 -5.66 38.96 -6 41 C-8.97 41 -11.94 41 -15 41 C-16.5476555 37.90468901 -16.44409451 34.6333237 -16.71875 31.21484375 C-16.7665741 29.02929332 -16.7665741 29.02929332 -18 28 C-18.66 32.29 -19.32 36.58 -20 41 C-22.97 41 -25.94 41 -29 41 C-29.81646844 37.6467551 -30.62828818 34.29249667 -31.4375 30.9375 C-31.66759766 29.99455078 -31.89769531 29.05160156 -32.13476562 28.08007812 C-33.34118658 23.06206632 -34.38160678 18.12484499 -35 13 C-32.03 13 -29.06 13 -26 13 C-25.34 15.64 -24.68 18.28 -24 21 C-23.67 21 -23.34 21 -23 21 C-22.855625 19.865625 -22.71125 18.73125 -22.5625 17.5625 C-22 14 -22 14 -21 13 C-18.32941149 12.85884839 -15.67567762 12.95752893 -13 13 C-11.89771304 17.40914783 -11.92345464 21.48382401 -12 26 C-11.34 26 -10.68 26 -10 26 C-9.90912109 25.11248047 -9.90912109 25.11248047 -9.81640625 24.20703125 C-9.37987629 20.09021792 -8.91328654 16.04455467 -8 12 C-5.36 12 -2.72 12 0 12 C0 8.04 0 4.08 0 0 Z " fill="#291C0F" transform="translate(166,53)"/>
<path d="M0 0 C0.86236771 -0.00137466 1.72473541 -0.00274933 2.61323547 -0.00416565 C3.55622498 -0.00057037 4.49921448 0.0030249 5.47077942 0.00672913 C6.4660817 0.0065831 7.46138397 0.00643707 8.48684692 0.00628662 C11.78205024 0.0069842 15.07719728 0.01476941 18.37239075 0.02259827 C20.65496795 0.02446299 22.93754555 0.02588664 25.22012329 0.02688599 C31.23217369 0.03070684 37.24419998 0.04053348 43.25624084 0.05158997 C50.46739453 0.06361034 57.67855627 0.06820838 64.8897171 0.07404327 C75.84880217 0.08374543 86.80783434 0.10290504 97.766922 0.12025452 C97.766922 16.29025452 97.766922 32.46025452 97.766922 49.12025452 C96.01620561 46.49417994 94.63518679 43.92471656 93.204422 41.12025452 C83.04490581 22.45337648 66.92104802 10.20065186 46.766922 4.12025452 C45.57711731 3.7528717 44.38731262 3.38548889 43.16145325 3.00697327 C29.25581891 -0.35393032 10.89453348 0.31317826 -2.233078 6.12025452 C-3.13558289 6.51494934 -3.13558289 6.51494934 -4.05632019 6.9176178 C-15.20521347 11.93036447 -24.18371852 18.88746992 -31.9440155 28.39369202 C-34.233078 31.12025452 -34.233078 31.12025452 -36.233078 32.12025452 C-38.44987401 35.66712813 -40.32203265 39.40159667 -42.233078 43.12025452 C-42.60948425 43.8356842 -42.9858905 44.55111389 -43.373703 45.28822327 C-46.88582561 52.49364941 -48.44102767 60.35152568 -50.233078 68.12025452 C-51.883078 67.13025452 -53.533078 66.14025452 -55.233078 65.12025452 C-53.88189209 52.61013666 -49.7334444 40.32908655 -42.233078 30.12025452 C-41.573078 30.12025452 -40.913078 30.12025452 -40.233078 30.12025452 C-40.09192566 29.26173889 -40.09192566 29.26173889 -39.94792175 28.38587952 C-35.92325592 15.63010802 -18.37805831 6.93187624 -7.233078 1.12025452 C-4.46790679 0.19853078 -2.84863929 -0.00350386 0 0 Z " fill="#212121" transform="translate(136.2330780029297,-0.1202545166015625)"/>
<path d="M0 0 C0.495 2.475 0.495 2.475 1 5 C0.43152344 5.4125 -0.13695312 5.825 -0.72265625 6.25 C-8.53978077 12.09653052 -15.67821236 18.55807027 -19 28 C-19.34012959 30.83690837 -19.34012959 30.83690837 -19 33 C-16.69 32.67 -14.38 32.34 -12 32 C-12 34.64 -12 37.28 -12 40 C-14.97 40.495 -14.97 40.495 -18 41 C-18.33 47.6 -18.66 54.2 -19 61 C-21.97 61 -24.94 61 -28 61 C-29.96822886 59.03177114 -29.66248381 55.65191291 -30 53 C-30.5775 53.94875 -31.155 54.8975 -31.75 55.875 C-34.8 60.11111111 -34.8 60.11111111 -38 61 C-44.91764706 61.65882353 -44.91764706 61.65882353 -48.875 59.25 C-53.81763069 54.01662633 -53.56932682 48.52957014 -53.39453125 41.59375 C-52.85694591 36.69693302 -51.76924242 35.05129149 -48 32 C-43.96264995 29.98132498 -39.90908801 30.70279815 -35.75 32.0625 C-32.07383487 34.65252543 -31.42906523 36.79219682 -30 41 C-29.67 37.7 -29.34 34.4 -29 31 C-28.01 30.67 -27.02 30.34 -26 30 C-25.18956371 28.20014245 -25.18956371 28.20014245 -24.6875 26 C-21.56223653 15.87094096 -14.13188442 7.16191251 -5.41015625 1.2421875 C-3 0 -3 0 0 0 Z " fill="#202020" transform="translate(142,34)"/>
<path d="M0 0 C1.49579103 1.29352212 2.97671707 2.60456958 4.4375 3.9375 C5.36755859 4.73027344 5.36755859 4.73027344 6.31640625 5.5390625 C13.69137224 12.23757747 18.92404992 21.69679586 22.4375 30.9375 C22.125 33.875 22.125 33.875 21.4375 35.9375 C19.640625 35.83984375 19.640625 35.83984375 17.4375 34.9375 C15.796875 32.12890625 15.796875 32.12890625 14.1875 28.5 C8.04393247 15.38860574 -1.24519997 5.57023684 -13.9375 -1.375 C-14.52539307 -1.70064941 -15.11328613 -2.02629883 -15.71899414 -2.36181641 C-24.62055425 -6.9938554 -33.78658653 -8.62897389 -43.75 -8.5625 C-45.24503052 -8.55500732 -45.24503052 -8.55500732 -46.77026367 -8.54736328 C-64.93027412 -8.12364432 -78.71385598 -0.65838381 -91.5625 11.9375 C-92.28695312 12.62585938 -93.01140625 13.31421875 -93.7578125 14.0234375 C-100.89872588 21.32726145 -104.32223233 30.41526541 -107.0625 40.125 C-108.13635799 43.62642786 -108.41406959 43.84145679 -111.75 46 C-112.678125 46.309375 -113.60625 46.61875 -114.5625 46.9375 C-112.48487311 29.44822288 -104.46864583 12.89452563 -90.69921875 1.5859375 C-87.70086498 -0.70670162 -84.66141667 -2.90821862 -81.5625 -5.0625 C-80.96824219 -5.4853125 -80.37398437 -5.908125 -79.76171875 -6.34375 C-55.51448613 -21.88202827 -21.87106964 -17.00715551 0 0 Z " fill="#212020" transform="translate(206.5625,21.0625)"/>
<path d="M0 0 C1.32 0.33 2.64 0.66 4 1 C3.67 1.66 3.34 2.32 3 3 C2.91081223 4.38909304 2.88240459 5.78236907 2.88647461 7.17431641 C2.88655014 8.03505768 2.88662567 8.89579895 2.88670349 9.78262329 C2.89186478 10.71287323 2.89702606 11.64312317 2.90234375 12.6015625 C2.9037587 13.55316254 2.90517365 14.50476257 2.90663147 15.48519897 C2.91223988 18.53183097 2.92479381 21.57839013 2.9375 24.625 C2.94251392 26.68749894 2.94707701 28.74999903 2.95117188 30.8125 C2.96221204 35.87502817 2.97948233 40.93750173 3 46 C3.21197777 45.13441467 3.21197777 45.13441467 3.42823792 44.25134277 C4.07562364 41.61477261 4.7272272 38.97926212 5.37890625 36.34375 C5.60114868 35.43592773 5.82339111 34.52810547 6.05236816 33.59277344 C7.56839558 27.47854717 9.29679037 21.70463811 12 16 C12.47566406 14.93652344 12.95132812 13.87304688 13.44140625 12.77734375 C17.43654822 4.21632524 17.43654822 4.21632524 20.1875 3.16015625 C20.785625 3.10730469 21.38375 3.05445313 22 3 C23.41387216 7.54102469 22.52116947 9.72010049 20.375 13.875 C13.51462356 28.08804841 10.41560473 42.49546161 8 58 C7.73086792 59.64174194 7.73086792 59.64174194 7.45629883 61.31665039 C6.97528132 65.19953493 6.87296009 68.99855939 6.90234375 72.90234375 C6.9037587 73.6249086 6.90517365 74.34747345 6.90663147 75.0919342 C6.91217775 77.37383365 6.9247198 79.65563079 6.9375 81.9375 C6.94252196 83.49544128 6.94708364 85.05338412 6.95117188 86.61132812 C6.9621295 90.40759081 6.97935628 94.20377813 7 98 C5.68 98 4.36 98 3 98 C3 141.89 3 185.78 3 231 C2.01 231 1.02 231 0 231 C0 154.77 0 78.54 0 0 Z " fill="#232323" transform="translate(0,0)"/>
<path d="M0 0 C0.99 0 1.98 0 3 0 C3 1.98 3 3.96 3 6 C5.97 6 8.94 6 12 6 C12 4.02 12 2.04 12 0 C17.01479217 5.01479217 18.82530831 16.28227822 19.08154297 23.20214844 C18.94809718 26.38807121 18.57150894 29.54289086 18.21875 32.7109375 C17.88825657 37.68014229 19.13022965 41.45289313 21 46 C21.34160156 46.91910156 21.68320312 47.83820313 22.03515625 48.78515625 C27.08215304 61.7704802 34.29327626 73.1745886 43 84 C43.61230469 84.77859375 44.22460938 85.5571875 44.85546875 86.359375 C52.42526451 95.46249826 62.4009519 102.20118377 72 109 C71.67 110.65 71.34 112.3 71 114 C66.94289724 113.38797963 63.96630917 111.18378085 60.6875 108.875 C60.10935547 108.47120117 59.53121094 108.06740234 58.93554688 107.65136719 C54.49444335 104.48664381 50.68603301 101.01777598 47 97 C45.33469666 95.33197112 43.66791277 93.66541963 42 92 C34.74443612 84.6142384 29.0194949 77.05735471 24 68 C23.66226563 67.39559082 23.32453125 66.79118164 22.9765625 66.16845703 C15.69582004 52.97211132 9.4995133 38.23515571 9 23 C7.35 23 5.7 23 4 23 C4.78375 22.525625 5.5675 22.05125 6.375 21.5625 C9.9310969 18.09107207 10.31347549 14.7954249 11 10 C8.69 10 6.38 10 4 10 C3.67 11.98 3.34 13.96 3 16 C1.68 15.67 0.36 15.34 -1 15 C-1.02685412 12.68756208 -1.04632841 10.3750373 -1.0625 8.0625 C-1.07410156 6.77472656 -1.08570312 5.48695312 -1.09765625 4.16015625 C-1 1 -1 1 0 0 Z " fill="#1F1F1F" transform="translate(27,72)"/>
<path d="M0 0 C8.20751834 7.04460021 14.61165644 15.46305204 18.1171875 25.7734375 C18.3046875 28.7109375 18.3046875 28.7109375 18.1171875 30.7734375 C16.4671875 30.7734375 14.8171875 30.7734375 13.1171875 30.7734375 C12.90964844 30.25136719 12.70210938 29.72929688 12.48828125 29.19140625 C7.41187627 17.06325879 0.20526723 5.78374743 -11.83984375 -0.41796875 C-22.84945797 -4.77550249 -36.78576624 -6.46654814 -48.2578125 -2.8515625 C-51.84480258 -1.50190264 -51.84480258 -1.50190264 -53.8828125 0.7734375 C-54.4603125 0.8971875 -55.0378125 1.0209375 -55.6328125 1.1484375 C-62.55967653 3.0725664 -69.22998497 9.46835571 -72.92236328 15.46044922 C-77.21788431 22.7412124 -77.21788431 22.7412124 -78.8828125 30.7734375 C-80.2028125 30.7734375 -81.5228125 30.7734375 -82.8828125 30.7734375 C-82.8828125 36.3834375 -82.8828125 41.9934375 -82.8828125 47.7734375 C-83.2128125 47.7734375 -83.5428125 47.7734375 -83.8828125 47.7734375 C-88.31827947 27.00305186 -88.31827947 27.00305186 -82.3203125 17.3359375 C-72.88775252 4.17636602 -61.37372036 -7.53248135 -44.8828125 -10.6015625 C-28.29762041 -12.69358283 -13.45658298 -10.3932958 0 0 Z " fill="#070707" transform="translate(195.8828125,34.2265625)"/>
<path d="M0 0 C2.97 0 5.94 0 9 0 C9 13.2 9 26.4 9 40 C5.33333333 40 1.66666667 40 -2 40 C-2.495 40.495 -2.495 40.495 -3 41 C-6.66120928 41.40680103 -8.3618744 41.5001525 -11.3125 39.1875 C-14.50648 35.04715556 -14.28125276 30.70297715 -14.375 25.6875 C-14.41238281 24.94048828 -14.44976562 24.19347656 -14.48828125 23.42382812 C-14.55244704 19.36355965 -14.23143168 16.72717393 -11.7109375 13.453125 C-9 11 -9 11 -5.25 11.0625 C-2 12 -2 12 -1 13 C-0.67 8.71 -0.34 4.42 0 0 Z " fill="#858585" transform="translate(131,105)"/>
<path d="M0 0 C2.97 0 5.94 0 9 0 C9.66 2.64 10.32 5.28 11 8 C11.33 8 11.66 8 12 8 C12.144375 6.865625 12.28875 5.73125 12.4375 4.5625 C13 1 13 1 14 0 C16.67058851 -0.14115161 19.32432238 -0.04247107 22 0 C23.10228696 4.40914783 23.07654536 8.48382401 23 13 C23.66 13 24.32 13 25 13 C25.09087891 12.09507813 25.09087891 12.09507813 25.18359375 11.171875 C25.26738281 10.37265625 25.35117188 9.5734375 25.4375 8.75 C25.51871094 7.96109375 25.59992188 7.1721875 25.68359375 6.359375 C25.97634993 4.17635361 26.42064419 2.1226818 27 0 C29.31 0 31.62 0 34 0 C33.38277416 9.56700056 31.1798659 18.69247957 29 28 C26.03 28 23.06 28 20 28 C18.4523445 24.90468901 18.55590549 21.6333237 18.28125 18.21484375 C18.2334259 16.02929332 18.2334259 16.02929332 17 15 C16.34 19.29 15.68 23.58 15 28 C12.03 28 9.06 28 6 28 C5.18353156 24.6467551 4.37171182 21.29249667 3.5625 17.9375 C3.33240234 16.99455078 3.10230469 16.05160156 2.86523438 15.08007812 C1.65881342 10.06206632 0.61839322 5.12484499 0 0 Z " fill="#EC901D" transform="translate(131,66)"/>
<path d="M0 0 C2.125 0.375 2.125 0.375 4 1 C3.57843186 5.32107346 2.40881935 8.33123028 0.171875 12.03515625 C-4.36880826 19.64836851 -7.39958732 27.54502694 -10 36 C-8.02 36 -6.04 36 -4 36 C-3.84917969 35.01386719 -3.84917969 35.01386719 -3.6953125 34.0078125 C-1.38992832 22.35456918 4.84391367 9.7227197 13 1 C15.75 0.6875 15.75 0.6875 18 1 C17.50649746 5.41621504 16.65129397 7.9264196 13.875 11.375 C6.33293684 21.71041988 1.47443321 34.2830136 0 47 C0.33 47.66 0.66 48.32 1 49 C-0.32 49.66 -1.64 50.32 -3 51 C-3 46.38 -3 41.76 -3 37 C-5.97 37 -8.94 37 -12 37 C-11.979375 38.44375 -11.95875 39.8875 -11.9375 41.375 C-11.92672261 49.59815047 -12.49456828 57.79576006 -13 66 C-13.99 65.67 -14.98 65.34 -16 65 C-16.99 65.99 -16.99 65.99 -18 67 C-17.31195504 60.80759538 -15.71951285 54.98044406 -14 49 C-16.31 49 -18.62 49 -21 49 C-19.515 48.505 -19.515 48.505 -18 48 C-17.91363281 47.16339844 -17.82726563 46.32679687 -17.73828125 45.46484375 C-15.93989263 30.56626644 -11.03768573 11.03768573 0 0 Z " fill="#252422" transform="translate(76,17)"/>
<path d="M0 0 C2.97 0 5.94 0 9 0 C9.33 4.29 9.66 8.58 10 13 C10.99 12.34 11.98 11.68 13 11 C19.09559476 11.21769981 19.09559476 11.21769981 21.70703125 13.4765625 C23.68131469 17.32969573 23.31725524 20.99136649 23.1875 25.25 C23.16719727 26.51070312 23.16719727 26.51070312 23.14648438 27.796875 C23.11123464 29.86485938 23.0574302 31.93251271 23 34 C21.515 34.495 21.515 34.495 20 35 C19.67 35.99 19.34 36.98 19 38 C18.34 37.34 17.68 36.68 17 36 C15.0068433 35.97624074 15.0068433 35.97624074 12.875 36.375 C11.59625 36.58125 10.3175 36.7875 9 37 C9 36.34 9 35.68 9 35 C11.475 34.505 11.475 34.505 14 34 C13.67 29.38 13.34 24.76 13 20 C12.01 20 11.02 20 10 20 C9.93941406 20.77085938 9.87882812 21.54171875 9.81640625 22.3359375 C9.73261719 23.33882812 9.64882812 24.34171875 9.5625 25.375 C9.48128906 26.37273437 9.40007812 27.37046875 9.31640625 28.3984375 C9 31 9 31 8 33 C7.95977609 35.3329866 7.95679753 37.66706666 8 40 C5.36 40 2.72 40 0 40 C0 26.8 0 13.6 0 0 Z " fill="#EE921D" transform="translate(64,54)"/>
<path d="M0 0 C13.53 0 27.06 0 41 0 C41 11.88 41 23.76 41 36 C37 31 37 31 35.10546875 28.5703125 C25.33848901 16.11791063 14.43368432 7.63949479 0 1 C0 0.67 0 0.34 0 0 Z " fill="#202020" transform="translate(193,0)"/>
<path d="M0 0 C3.58552881 1.63687185 4.79315055 2.68972583 7 6 C7.22705078 7.90112305 7.22705078 7.90112305 7.1953125 10.01171875 C7.18886719 10.76904297 7.18242187 11.52636719 7.17578125 12.30664062 C7.15902344 13.09232422 7.14226562 13.87800781 7.125 14.6875 C7.11597656 15.48478516 7.10695312 16.28207031 7.09765625 17.10351562 C7.07411585 19.069139 7.03824547 21.03460775 7 23 C7.66 23 8.32 23 9 23 C9 24.98 9 26.96 9 29 C6.22899606 30.38550197 4.0665294 30.1877467 1 30 C0.01 29.34 -0.98 28.68 -2 28 C-2.99 28.66 -3.98 29.32 -5 30 C-8.61550392 30.46155369 -10.33636094 30.45406883 -13.375 28.375 C-15.49970879 25.26965639 -15.60386292 23.6986604 -15 20 C-12.61878007 16.20768678 -10.0411373 13.91954022 -6 12 C-4.68 12 -3.36 12 -2 12 C-2.33 10.68 -2.66 9.36 -3 8 C-3.66 8 -4.32 8 -5 8 C-5.33 8.99 -5.66 9.98 -6 11 C-8.64 11 -11.28 11 -14 11 C-14.49046322 5.60490463 -14.49046322 5.60490463 -12.125 2.6875 C-8.27454111 -0.37021736 -4.79483004 -0.52457833 0 0 Z " fill="#828282" transform="translate(157,116)"/>
<path d="M0 0 C1.67542976 0.28604898 3.34385343 0.61781233 5 1 C4.0536982 5.24959605 2.15988452 8.92742831 0.25 12.8125 C-10.51815391 35.2487608 -16.08131447 61.02422634 -14 86 C-13.37035448 87.3512101 -12.7142511 88.69154 -12 90 C-12.875 92.25 -12.875 92.25 -14 94 C-15.65 93.67 -17.3 93.34 -19 93 C-25.23267975 62.88369143 -16.35568307 26.90056671 -1 1 C-0.67 0.67 -0.34 0.34 0 0 Z " fill="#232322" transform="translate(32,2)"/>
<path d="M0 0 C1.32 0.33 2.64 0.66 4 1 C4 5.62 4 10.24 4 15 C2.35 15.33 0.7 15.66 -1 16 C-1 16.66 -1 17.32 -1 18 C-0.2575 17.649375 0.485 17.29875 1.25 16.9375 C4.14308148 15.95122222 5.21470671 15.90577764 8 17 C8.33 17.33 8.66 17.66 9 18 C10.60726195 16.94161451 10.60726195 16.94161451 12 15 C12.58218332 11.5776116 12.58218332 11.5776116 12.6875 7.8125 C12.75324219 6.54019531 12.81898437 5.26789063 12.88671875 3.95703125 C12.94279297 2.49330078 12.94279297 2.49330078 13 1 C13.66 1.33 14.32 1.66 15 2 C15.34375 4.546875 15.34375 4.546875 15.5 7.75 C15.70686569 11.94937359 16.23959903 15.16686884 18 19 C17.01 19.33 16.02 19.66 15 20 C15.87249291 32.50573165 22.3697456 45.46199262 31.24609375 54.21484375 C33 56 33 56 33 58 C33.58394531 58.27070313 34.16789062 58.54140625 34.76953125 58.8203125 C36.98883085 59.99409267 38.76561162 61.26578326 40.6875 62.875 C41.28949219 63.36742187 41.89148438 63.85984375 42.51171875 64.3671875 C44.20487499 66.22477098 44.60184921 67.54739113 45 70 C42.80078125 70.70703125 42.80078125 70.70703125 40 71 C37.54296875 69.63671875 37.54296875 69.63671875 35.1875 67.6875 C34.39730469 67.05199219 33.60710937 66.41648437 32.79296875 65.76171875 C32.20128906 65.18035156 31.60960937 64.59898437 31 64 C31 63.34 31 62.68 31 62 C30.01 61.67 29.02 61.34 28 61 C19.59960612 51.8374402 8 34.89227637 8 22 C3.02093741 21.24572703 3.02093741 21.24572703 -2 21 C-2.87890625 14.84765625 -2.87890625 14.84765625 -3 13 C-2.67 12.67 -2.34 12.34 -2 12 C-1.79162581 10.17093765 -1.63250341 8.33611866 -1.5 6.5 C-1.11111111 1.11111111 -1.11111111 1.11111111 0 0 Z " fill="#202020" transform="translate(74,73)"/>
<path d="M0 0 C3.70836601 1.68562091 5.8677043 3.54944741 8 7 C8.38457675 10.38427538 8.13499016 13.58024929 8 17 C3.38 17 -1.24 17 -6 17 C-5.34 18.65 -4.68 20.3 -4 22 C-3.01 22.33 -2.02 22.66 -1 23 C-1 21.68 -1 20.36 -1 19 C1.97 19 4.94 19 8 19 C7.68031467 22.51653861 7.37757864 24.53431968 5.125 27.3125 C1.67846408 30.04945499 -1.64900069 30.39549723 -5.99609375 30.35546875 C-9.4250568 29.74721215 -10.95649153 27.66275346 -13 25 C-14.21640326 21.35079022 -14.29960139 17.92920257 -14.375 14.125 C-14.41238281 13.41730469 -14.44976562 12.70960937 -14.48828125 11.98046875 C-14.55613534 7.93184166 -14.1889075 6.23198087 -11.6015625 3.0546875 C-7.52635323 -0.16387118 -5.2079301 -0.35308001 0 0 Z " fill="#EE921E" transform="translate(211,65)"/>
<path d="M0 0 C5.36454905 2.02435813 5.36454905 2.02435813 7.16015625 4.78125 C8.67012928 8.77038806 8.1111094 12.7778429 8 17 C3.71 17 -0.58 17 -5 17 C-4.67 18.65 -4.34 20.3 -4 22 C-3.01 22 -2.02 22 -1 22 C-0.67 21.01 -0.34 20.02 0 19 C2.64 19 5.28 19 8 19 C7.38976378 25.46850394 7.38976378 25.46850394 5.625 27.875 C1.83616295 30.49804104 -2.56052344 30.63297224 -7 30 C-10.5597453 27.83319852 -12.51183917 25.86012024 -14 22 C-15.30465192 9.83240417 -15.30465192 9.83240417 -12.94921875 4.71875 C-9.05735131 0.03473255 -5.87339395 -0.3915596 0 0 Z " fill="#F4951D" transform="translate(103,65)"/>
<path d="M0 0 C2.58381702 2.58381702 2.76087825 4.57967805 3.625 8.125 C10.26917095 32.20703226 25.8903149 52.28569119 45.69140625 67 C46.51511719 67.61875 47.33882812 68.2375 48.1875 68.875 C48.92355469 69.40867187 49.65960938 69.94234375 50.41796875 70.4921875 C50.94003906 70.98976563 51.46210937 71.48734375 52 72 C52 72.99 52 73.98 52 75 C43.45410164 75.67369126 38.50570722 69.8678564 32.23046875 64.734375 C20.5329425 54.6266413 12.16208835 42.59002185 5 29 C4.50628906 28.08089844 4.01257812 27.16179687 3.50390625 26.21484375 C-3.71231232 12.36056062 -3.71231232 12.36056062 -3 5 C-2.01 5 -1.02 5 0 5 C0 3.35 0 1.7 0 0 Z " fill="#202020" transform="translate(53,100)"/>
<path d="M0 0 C2.97 0 5.94 0 9 0 C9.99 3.96 10.98 7.92 12 12 C13.32 8.04 14.64 4.08 16 0 C18.64 0 21.28 0 24 0 C23.68546875 1.17433594 23.3709375 2.34867187 23.046875 3.55859375 C20.6493587 12.5615121 18.33618355 21.57183293 16.25683594 30.65405273 C15.60574443 33.48823612 14.92041658 36.23875026 14 39 C11.03 39 8.06 39 5 39 C5.165 38.175 5.33 37.35 5.5 36.5 C6.57662271 28.96364106 5.7748069 23.12292653 3.5625 15.9375 C1.95947668 10.61654024 0.63872681 5.52829067 0 0 Z " fill="#838383" transform="translate(190,117)"/>
<path d="M0 0 C2.97 0 5.94 0 9 0 C11.28571429 9.57142857 11.28571429 9.57142857 11 14 C11.66 14 12.32 14 13 14 C13.06058594 13.32453125 13.12117188 12.6490625 13.18359375 11.953125 C13.26738281 11.06109375 13.35117187 10.1690625 13.4375 9.25 C13.51871094 8.36828125 13.59992187 7.4865625 13.68359375 6.578125 C13.96238465 4.30649548 14.38790577 2.20148177 15 0 C17.64 0 20.28 0 23 0 C22.37459548 6.55516594 20.86734874 12.61403714 19.0625 18.9375 C17.18170193 25.59579975 15.43718659 32.23064289 14 39 C11.03 39 8.06 39 5 39 C5.14179687 38.40058594 5.28359375 37.80117187 5.4296875 37.18359375 C7.17629419 26.41285251 3.61868793 16.63305178 0.56665039 6.375 C0 4 0 4 0 0 Z " fill="#ED911E" transform="translate(39,66)"/>
<path d="M0 0 C6.57692308 0.57692308 6.57692308 0.57692308 8 2 C8.33 1.34 8.66 0.68 9 0 C10.32 0 11.64 0 13 0 C13.33 2.31 13.66 4.62 14 7 C14.66 4.69 15.32 2.38 16 0 C16.99 0 17.98 0 19 0 C18.84402344 0.59425781 18.68804687 1.18851563 18.52734375 1.80078125 C16.94721656 8.52940232 17.13459706 14.18965513 18 21 C18.19489785 23.06181409 18.38263305 25.12432032 18.5625 27.1875 C18.68818359 28.57001953 18.68818359 28.57001953 18.81640625 29.98046875 C18.87699219 30.64691406 18.93757813 31.31335938 19 32 C18.34 32 17.68 32 17 32 C16.01 27.71 15.02 23.42 14 19 C13.67 23.62 13.34 28.24 13 33 C8.05 33 3.1 33 -2 33 C-2.66964286 23.49107143 -2.66964286 23.49107143 0.4375 18.625 C3.78306771 13.36092877 3.88619939 8.11419639 4 2 C3.01 2 2.02 2 1 2 C1 5.3 1 8.6 1 12 C0.01 12 -0.98 12 -2 12 C-2.05395478 10.37536158 -2.09277195 8.75021459 -2.125 7.125 C-2.14820313 6.22007812 -2.17140625 5.31515625 -2.1953125 4.3828125 C-2 2 -2 2 0 0 Z " fill="#252525" transform="translate(38,177)"/>
<path d="M0 0 C1.32 0.33 2.64 0.66 4 1 C3.67 1.66 3.34 2.32 3 3 C2.90389884 5.97317961 2.86991806 8.92288042 2.87974548 11.89627075 C2.87889106 12.82902954 2.87803663 13.76178833 2.87715632 14.72281253 C2.87550117 17.86747361 2.88102348 21.01208207 2.88647461 24.15673828 C2.8867565 26.40331013 2.88659871 28.64988207 2.8860321 30.89645386 C2.8857442 37.01185089 2.89163978 43.12722845 2.89860606 49.24262094 C2.90484078 55.62747506 2.90544349 62.01232959 2.90663147 68.39718628 C2.90939035 79.11912437 2.91564427 89.84105392 2.92456055 100.56298828 C2.93373588 111.60790979 2.94081612 122.65282936 2.94506836 133.69775391 C2.94533108 134.37826345 2.94559381 135.058773 2.94586449 135.75990404 C2.9471695 139.17373101 2.94843322 142.58755799 2.94967639 146.00138497 C2.96004753 174.33426159 2.97773877 202.66713041 3 231 C2.01 231 1.02 231 0 231 C0 154.77 0 78.54 0 0 Z " fill="#915A19" transform="translate(0,0)"/>
<path d="M0 0 C3.3248434 1.93445434 5.52220478 3.28816415 6.58984375 7.11328125 C6.875 9.3125 6.875 9.3125 7 13 C4.03 13 1.06 13 -2 13 C-2 11.02 -2 9.04 -2 7 C-2.99 7.33 -3.98 7.66 -5 8 C-5 12.62 -5 17.24 -5 22 C-4.01 22.33 -3.02 22.66 -2 23 C-1.67 21.02 -1.34 19.04 -1 17 C1.31 17 3.62 17 6 17 C6.32150943 21.09924523 6.41384837 23.34355086 4.1875 26.875 C1.38632031 29.59614598 -0.46058063 29.93893366 -4.3125 30.375 C-9.20301701 29.87765929 -10.57084492 28.42915508 -14 25 C-15.55010133 21.89979734 -15.30795676 18.65092097 -15.375 15.25 C-15.41238281 14.54617187 -15.44976563 13.84234375 -15.48828125 13.1171875 C-15.55537242 9.10662643 -15.17305918 6.70975923 -12.6015625 3.546875 C-8.7022404 -0.27047937 -5.3525263 -0.85402089 0 0 Z " fill="#EA901E" transform="translate(32,65)"/>
<path d="M0 0 C9.26169366 6.44291733 17.72714126 15.17593429 20.5625 26.4375 C20.748125 27.530625 20.93375 28.62375 21.125 29.75 C19.145 30.08 17.165 30.41 15.125 30.75 C14.83109375 29.84121094 14.83109375 29.84121094 14.53125 28.9140625 C10.67681192 18.1149903 4.22419746 10.21826259 -5.875 4.75 C-6.56464844 4.3375 -7.25429687 3.925 -7.96484375 3.5 C-18.83063875 -1.99973455 -33.47261848 -0.12069021 -44.875 2.75 C-45.205 1.76 -45.535 0.77 -45.875 -0.25 C-36.11286195 -11.96456566 -11.35390384 -6.87413226 0 0 Z " fill="#202020" transform="translate(187.875,35.25)"/>
<path d="M0 0 C0.33 0 0.66 0 1 0 C1.33 3.3 1.66 6.6 2 10 C3.52625 9.79375 5.0525 9.5875 6.625 9.375 C9.37890625 9.33984375 9.37890625 9.33984375 12 10 C14.70455191 13.01640879 16.30664196 16.34459611 18 20 C18.33 20.33 18.66 20.66 19 21 C19.07271741 23.35313555 19.08370868 25.70833668 19.0625 28.0625 C19.05347656 29.35285156 19.04445312 30.64320312 19.03515625 31.97265625 C19.02355469 32.97167969 19.01195312 33.97070312 19 35 C18.39285156 34.67515625 17.78570312 34.3503125 17.16015625 34.015625 C14.55353471 32.79008865 12.85216477 32.70747028 10 33 C9.01 33.66 8.02 34.32 7 35 C5.38725286 32.81840396 3.78488956 30.63030041 2.1875 28.4375 C1.50977539 27.52387695 1.50977539 27.52387695 0.81835938 26.59179688 C-2.61791796 21.8512391 -6 17.04266492 -6 11 C-6.66 10.67 -7.32 10.34 -8 10 C-7.236875 9.649375 -6.47375 9.29875 -5.6875 8.9375 C-2.09141882 6.34497636 -1.47896213 4.12552594 0 0 Z " fill="#090809" transform="translate(112,84)"/>
<path d="M0 0 C0.495 2.475 0.495 2.475 1 5 C-0.175625 5.433125 -1.35125 5.86625 -2.5625 6.3125 C-3.29597656 6.59222656 -4.02945313 6.87195312 -4.78515625 7.16015625 C-6.6817107 7.87930829 -8.58984223 8.5678008 -10.5 9.25 C-17.26341231 12.63170616 -22.1996682 17.5077665 -26 24 C-23.29987653 24.67350769 -23.29987653 24.67350769 -20 24 C-18.01038441 22.1281906 -16.36758111 20.10090461 -14.65234375 17.9765625 C-10.78678822 13.35251735 -6.84056733 12.57260464 -1 12 C-0.505 14.475 -0.505 14.475 0 17 C-0.69867188 17.33773437 -1.39734375 17.67546875 -2.1171875 18.0234375 C-3.02726562 18.46945313 -3.93734375 18.91546875 -4.875 19.375 C-5.77992188 19.81585938 -6.68484375 20.25671875 -7.6171875 20.7109375 C-10.09534472 21.90502699 -10.09534472 21.90502699 -12 24 C-10.68 24.66 -9.36 25.32 -8 26 C-10.31 26.33 -12.62 26.66 -15 27 C-15.66 30.96 -16.32 34.92 -17 39 C-17.33 39 -17.66 39 -18 39 C-20.28571429 30.57142857 -20.28571429 30.57142857 -20 26 C-23.96 26.495 -23.96 26.495 -28 27 C-28.33 29.31 -28.66 31.62 -29 34 C-29.33 34 -29.66 34 -30 34 C-30 31.36 -30 28.72 -30 26 C-31.98 26.33 -33.96 26.66 -36 27 C-35.46375 26.360625 -34.9275 25.72125 -34.375 25.0625 C-32.48442087 22.62464797 -30.84099758 20.21828708 -29.1875 17.625 C-22.48703358 7.59096819 -12.68833433 -0.34292795 0 0 Z " fill="#202020" transform="translate(160,40)"/>
<path d="M0 0 C16.83 0 33.66 0 51 0 C51 7.59 51 15.18 51 23 C47.07620945 23 45.99491322 21.39593058 43 19 C42.01 19 41.02 19 40 19 C40.66 16.03 41.32 13.06 42 10 C41.01 10 40.02 10 39 10 C38.814375 11.6396875 38.814375 11.6396875 38.625 13.3125 C38 17 38 17 36 20 C36 16.7 36 13.4 36 10 C35.01 10 34.02 10 33 10 C30.80252457 6.95734171 29.92166855 4.68667422 29 1 C19.43 1 9.86 1 0 1 C0 0.67 0 0.34 0 0 Z " fill="#151515" transform="translate(15,167)"/>
<path d="M0 0 C2.97 0 5.94 0 9 0 C9 13.2 9 26.4 9 40 C6.03 40 3.06 40 0 40 C0 26.8 0 13.6 0 0 Z " fill="#868686" transform="translate(179,105)"/>
<path d="M0 0 C2.97 0 5.94 0 9 0 C9.33 0.66 9.66 1.32 10 2 C10.66 1.34 11.32 0.68 12 0 C14.625 -0.125 14.625 -0.125 17 0 C17 2.97 17 5.94 17 9 C14.69 9.33 12.38 9.66 10 10 C9.67 16.27 9.34 22.54 9 29 C6.03 29 3.06 29 0 29 C0 19.43 0 9.86 0 0 Z " fill="#F2941D" transform="translate(179,65)"/>
<path d="M0 0 C1.2065625 0.0309375 1.2065625 0.0309375 2.4375 0.0625 C1.83545245 5.63368631 -0.19246927 10.2212412 -2.375 15.3125 C-7.46833868 27.59937115 -10.27141198 39.84953216 -11.5625 53.0625 C-13.5425 53.0625 -15.5225 53.0625 -17.5625 53.0625 C-17.94347891 46.395369 -16.55502133 40.28984437 -15.0625 33.8125 C-14.80057861 32.67111572 -14.53865723 31.52973145 -14.26879883 30.35375977 C-6.97889371 0.17021692 -6.97889371 0.17021692 0 0 Z " fill="#222222" transform="translate(41.5625,11.9375)"/>
<path d="M0 0 C2.64 0 5.28 0 8 0 C8 0.66 8 1.32 8 2 C8.86625 1.505 8.86625 1.505 9.75 1 C12 0 12 0 16 0 C16 2.64 16 5.28 16 8 C14.02 8.33 12.04 8.66 10 9 C9.67 15.6 9.34 22.2 9 29 C6.03 29 3.06 29 0 29 C0 19.43 0 9.86 0 0 Z " fill="#F4961E" transform="translate(114,66)"/>
<path d="M0 0 C3.3 0 6.6 0 10 0 C10 9.9 10 19.8 10 30 C6.7 30 3.4 30 0 30 C0 20.1 0 10.2 0 0 Z " fill="#797979" transform="translate(167,116)"/>
<path d="M0 0 C8.07092319 -1.20661642 13.677292 -0.42062593 20.1875 4.375 C26.28511102 9.04506259 31.87020929 14.28422196 37 20 C38.11761719 21.20269531 38.11761719 21.20269531 39.2578125 22.4296875 C41.34461241 25.50841921 41.42698519 27.14005725 41.25 30.8125 C41.21390625 31.78832031 41.1778125 32.76414063 41.140625 33.76953125 C41.09421875 34.50558594 41.0478125 35.24164063 41 36 C39.02107786 33.53402607 37.04971491 31.0637581 35.10546875 28.5703125 C25.33848901 16.11791063 14.43368432 7.63949479 0 1 C0 0.67 0 0.34 0 0 Z " fill="#070707" transform="translate(193,0)"/>
<path d="M0 0 C2.97 0 5.94 0 9 0 C9 9.57 9 19.14 9 29 C6.03 29 3.06 29 0 29 C0 19.43 0 9.86 0 0 Z " fill="#EB901D" transform="translate(167,65)"/>
<path d="M0 0 C0.99 0 1.98 0 3 0 C3.48066535 1.89545392 3.95946743 3.79138039 4.4375 5.6875 C4.83775391 7.27111328 4.83775391 7.27111328 5.24609375 8.88671875 C5.89729897 11.57589263 6.45736666 14.28683331 7 17 C7.33 11.39 7.66 5.78 8 0 C8.66 0 9.32 0 10 0 C10 10.56 10 21.12 10 32 C9.34 32 8.68 32 8 32 C6.68 27.38 5.36 22.76 4 18 C3.67 22.95 3.34 27.9 3 33 C2.01 33 1.02 33 0 33 C0 22.11 0 11.22 0 0 Z " fill="#BFBFBF" transform="translate(23,177)"/>
<path d="M0 0 C0.33 0.66 0.66 1.32 1 2 C1.80695313 2.11601563 2.61390625 2.23203125 3.4453125 2.3515625 C4.28835937 2.56554687 5.13140625 2.77953125 6 3 C7.1171875 4.8984375 7.1171875 4.8984375 7.875 7.375 C10.19514 13.95662164 13.63394353 20.74202791 18.703125 25.6484375 C20 27 20 27 20.1875 29.6875 C20.0946875 30.8321875 20.0946875 30.8321875 20 32 C14.9036959 31.31412602 13.10546968 29.65464571 9.91015625 25.78515625 C7.50935827 22.28460623 5.54113312 18.65837867 3.625 14.875 C3.10619263 13.85394165 3.10619263 13.85394165 2.5769043 12.81225586 C0.67653434 8.90068085 -0.63921461 5.39623683 -1 1 C-0.67 0.67 -0.34 0.34 0 0 Z " fill="#202020" transform="translate(95,94)"/>
<path d="M0 0 C2.58531864 0.28325807 3.73618623 0.72133703 5.53979492 2.62646484 C6.01521729 3.31434082 6.49063965 4.0022168 6.98046875 4.7109375 C7.50447266 5.46117187 8.02847656 6.21140625 8.56835938 6.984375 C9.36983398 8.16773438 9.36983398 8.16773438 10.1875 9.375 C10.73341797 10.15617188 11.27933594 10.93734375 11.84179688 11.7421875 C15.84575145 17.53725434 15.84575145 17.53725434 17 21 C19.31 21 21.62 21 24 21 C24 21.33 24 21.66 24 22 C5.85 22 -12.3 22 -31 22 C-31 21.67 -31 21.34 -31 21 C-17.47 21 -3.94 21 10 21 C5.05 14.07 5.05 14.07 0 7 C-0.33 5.02 -0.66 3.04 -1 1 C-0.67 0.67 -0.34 0.34 0 0 Z " fill="#212121" transform="translate(44,144)"/>
<path d="M0 0 C0.99 0 1.98 0 3 0 C3 1.98 3 3.96 3 6 C5.97 6 8.94 6 12 6 C12 4.02 12 2.04 12 0 C15.09189815 3.09189815 15.58044818 6.90869019 16.6875 11.0625 C16.92533203 11.88427734 17.16316406 12.70605469 17.40820312 13.55273438 C18.898041 19.10576645 19.62349478 24.37257823 18 30 C17.34 30.33 16.68 30.66 16 31 C13.72005699 24.16017096 12.92951016 17.12954067 12 10 C9.03 9.67 6.06 9.34 3 9 C3 11.31 3 13.62 3 16 C1.68 15.67 0.36 15.34 -1 15 C-1.02685412 12.68756208 -1.04632841 10.3750373 -1.0625 8.0625 C-1.07410156 6.77472656 -1.08570312 5.48695312 -1.09765625 4.16015625 C-1 1 -1 1 0 0 Z " fill="#17120E" transform="translate(27,72)"/>
<path d="M0 0 C0 2.3125 0 2.3125 -1 5 C-2.95862431 6.00566136 -4.87602495 6.62529122 -6.9921875 7.2265625 C-9.26145227 8.10071508 -10.40926881 9.18916764 -12 11 C-10.68 11.66 -9.36 12.32 -8 13 C-10.31 13.33 -12.62 13.66 -15 14 C-15.66 17.96 -16.32 21.92 -17 26 C-17.33 26 -17.66 26 -18 26 C-20.28571429 17.57142857 -20.28571429 17.57142857 -20 13 C-22.64 13.33 -25.28 13.66 -28 14 C-28.33 16.31 -28.66 18.62 -29 21 C-29.33 21 -29.66 21 -30 21 C-30 18.36 -30 15.72 -30 13 C-31.98 13.33 -33.96 13.66 -36 14 C-35.67 13.34 -35.34 12.68 -35 12 C-32.62676622 11.89938909 -30.25036092 11.87035154 -27.875 11.875 C-23.98113428 11.76426962 -20.87088054 11.63597198 -17.625 9.265625 C-15.96867806 7.23958834 -14.49129696 5.14833214 -13 3 C-8.63279798 -0.14844797 -5.24101806 -1.68461295 0 0 Z " fill="#362C20" transform="translate(160,53)"/>
<path d="M0 0 C1.3921875 1.2065625 1.3921875 1.2065625 2.8125 2.4375 C13.89223279 11.92029118 13.89223279 11.92029118 26 20 C25.67 21.65 25.34 23.3 25 25 C20.14310935 24.51339281 16.88301154 22.12956179 13.0625 19.3125 C12.46759766 18.89033203 11.87269531 18.46816406 11.25976562 18.03320312 C0.57463021 10.2908591 0.57463021 10.2908591 -0.5859375 5.6640625 C-0.390625 3.77604167 -0.1953125 1.88802083 0 0 Z " fill="#1C1C1C" transform="translate(68,171)"/>
<path d="M0 0 C3.70836601 1.68562091 5.8677043 3.54944741 8 7 C8.29296875 9.578125 8.29296875 9.578125 8.1875 12.25 C8.16042969 13.14203125 8.13335937 14.0340625 8.10546875 14.953125 C8.07066406 15.62859375 8.03585938 16.3040625 8 17 C5.03 16.67 2.06 16.34 -1 16 C-0.67 15.01 -0.34 14.02 0 13 C-1.65 12.67 -3.3 12.34 -5 12 C-5 10.02 -5 8.04 -5 6 C-6.98 5.01 -8.96 4.02 -11 3 C-7.48132256 -0.37793034 -4.7663619 -0.50172231 0 0 Z " fill="#EE911E" transform="translate(211,65)"/>
<path d="M0 0 C2.64 0 5.28 0 8 0 C8 5.61 8 11.22 8 17 C7.34 17 6.68 17 6 17 C5.896875 17.598125 5.79375 18.19625 5.6875 18.8125 C4.91123545 21.28243264 3.92911079 22.32251235 2 24 C2 23.34 2 22.68 2 22 C1.34 21.67 0.68 21.34 0 21 C-1.55606751 19.44393249 -1.12970769 17.94042629 -1.1328125 15.78125 C-1.13410156 14.93175781 -1.13539063 14.08226563 -1.13671875 13.20703125 C-1.13285156 12.31371094 -1.12898437 11.42039062 -1.125 10.5 C-1.12886719 9.60667969 -1.13273438 8.71335937 -1.13671875 7.79296875 C-1.13542969 6.94347656 -1.13414062 6.09398438 -1.1328125 5.21875 C-1.13168457 4.43435547 -1.13055664 3.64996094 -1.12939453 2.84179688 C-1 1 -1 1 0 0 Z " fill="#140F0A" transform="translate(189,74)"/>
<path d="M0 0 C0.99 0 1.98 0 3 0 C3.33 2.31 3.66 4.62 4 7 C4.66 4.69 5.32 2.38 6 0 C6.99 0 7.98 0 9 0 C8.84402344 0.59425781 8.68804687 1.18851563 8.52734375 1.80078125 C6.94721656 8.52940232 7.13459706 14.18965513 8 21 C8.19489785 23.06181409 8.38263305 25.12432032 8.5625 27.1875 C8.64628906 28.10917969 8.73007812 29.03085938 8.81640625 29.98046875 C8.87699219 30.64691406 8.93757813 31.31335938 9 32 C8.34 32 7.68 32 7 32 C6.01 27.71 5.02 23.42 4 19 C3.67 19 3.34 19 3 19 C2.67 23.29 2.34 27.58 2 32 C1.34 32 0.68 32 0 32 C0 21.44 0 10.88 0 0 Z " fill="#D5D5D5" transform="translate(48,177)"/>
<path d="M0 0 C0.33 0 0.66 0 1 0 C1.0515625 0.57105469 1.103125 1.14210938 1.15625 1.73046875 C2.16696875 8.95481072 5.22073721 14.07816501 9.22265625 20.01953125 C10.91749475 22.86164504 11.90475786 24.70014006 12 28 C10.5625 29.8125 10.5625 29.8125 9 31 C7.38725286 28.81840396 5.78488956 26.63030041 4.1875 24.4375 C3.50977539 23.52387695 3.50977539 23.52387695 2.81835938 22.59179688 C-0.61791796 17.8512391 -4 13.04266492 -4 7 C-4.66 6.67 -5.32 6.34 -6 6 C-5.195625 5.566875 -4.39125 5.13375 -3.5625 4.6875 C-0.72153646 3.19525998 -0.72153646 3.19525998 0 0 Z " fill="#222120" transform="translate(110,88)"/>
<path d="M0 0 C3.625 0.375 3.625 0.375 7 1 C7.56858773 9.06131049 7.25408223 14.7766528 3.1796875 21.83203125 C1.72681474 24.50204576 1.23817982 26.98305565 1 30 C2.98 30 4.96 30 7 30 C7 30.99 7 31.98 7 33 C4.03 33 1.06 33 -2 33 C-2.66964286 23.49107143 -2.66964286 23.49107143 0.4375 18.625 C3.78306771 13.36092877 3.88619939 8.11419639 4 2 C3.01 2 2.02 2 1 2 C1 5.3 1 8.6 1 12 C0.01 12 -0.98 12 -2 12 C-2.05395478 10.37536158 -2.09277195 8.75021459 -2.125 7.125 C-2.14820313 6.22007812 -2.17140625 5.31515625 -2.1953125 4.3828125 C-2 2 -2 2 0 0 Z " fill="#C9C9C9" transform="translate(38,177)"/>
<path d="M0 0 C2.3828125 -0.29296875 2.3828125 -0.29296875 5.125 -0.1875 C6.03507813 -0.16042969 6.94515625 -0.13335938 7.8828125 -0.10546875 C8.58148438 -0.07066406 9.28015625 -0.03585937 10 0 C9.45730469 1.19496094 8.91460937 2.38992188 8.35546875 3.62109375 C7.63258458 5.22645989 6.90994122 6.83193448 6.1875 8.4375 C5.83107422 9.22060547 5.47464844 10.00371094 5.10742188 10.81054688 C2.72810432 16.11489702 0.73042987 21.45017529 -1 27 C-1.33 27 -1.66 27 -2 27 C-2.05797565 23.06256167 -2.09358789 19.12523281 -2.125 15.1875 C-2.14175781 14.06794922 -2.15851562 12.94839844 -2.17578125 11.79492188 C-2.18222656 10.72177734 -2.18867187 9.64863281 -2.1953125 8.54296875 C-2.20578613 7.55321045 -2.21625977 6.56345215 -2.22705078 5.54370117 C-2 3 -2 3 0 0 Z " fill="#222222" transform="translate(4,0)"/>
<path d="M0 0 C0.99 0.33 1.98 0.66 3 1 C3.9140625 3.6171875 3.9140625 3.6171875 4.625 6.875 C5.65689673 11.48012733 5.65689673 11.48012733 7 16 C7.66 15.67 8.32 15.34 9 15 C9 15.99 9 16.98 9 18 C11.97 18 14.94 18 18 18 C18 18.33 18 18.66 18 19 C14.04 19.495 14.04 19.495 10 20 C9.67 21.32 9.34 22.64 9 24 C6.70703125 23.83984375 6.70703125 23.83984375 4 23 C-1.0692417 16.32531516 -2.98521707 9.24663176 -2 1 C-1.34 0.67 -0.68 0.34 0 0 Z " fill="#25221F" transform="translate(128,76)"/>
<path d="M0 0 C5.94 0 11.88 0 18 0 C18 5.28 18 10.56 18 16 C14.2369484 12.78572676 10.48302873 9.5616176 6.75 6.3125 C6.10546875 5.75175781 5.4609375 5.19101563 4.796875 4.61328125 C3.14615533 3.13122207 1.56865784 1.56865784 0 0 Z " fill="#070707" transform="translate(216,0)"/>
<path d="M0 0 C1.32 0.33 2.64 0.66 4 1 C4 5.62 4 10.24 4 15 C2.35 15.33 0.7 15.66 -1 16 C-1 16.66 -1 17.32 -1 18 C-0.2575 17.649375 0.485 17.29875 1.25 16.9375 C4.14308148 15.95122222 5.21470671 15.90577764 8 17 C8.33 17.33 8.66 17.66 9 18 C9.33 17.34 9.66 16.68 10 16 C10.66 16 11.32 16 12 16 C11.01 18.475 11.01 18.475 10 21 C3.375 22.25 3.375 22.25 0 20 C-0.66 20.33 -1.32 20.66 -2 21 C-2.87890625 14.84765625 -2.87890625 14.84765625 -3 13 C-2.67 12.67 -2.34 12.34 -2 12 C-1.79162581 10.17093765 -1.63250341 8.33611866 -1.5 6.5 C-1.11111111 1.11111111 -1.11111111 1.11111111 0 0 Z " fill="#E78D1F" transform="translate(74,73)"/>
<path d="M0 0 C3 3 3 3 3.29296875 5.26171875 C3.25816406 6.06222656 3.22335938 6.86273438 3.1875 7.6875 C3.16042969 8.49574219 3.13335937 9.30398437 3.10546875 10.13671875 C3.07066406 10.75160156 3.03585938 11.36648437 3 12 C3.99 12 4.98 12 6 12 C6 8.7 6 5.4 6 2 C6.99 2 7.98 2 9 2 C9.6422101 10.43435936 8.93246104 16.02409081 4 23 C3.01 22.67 2.02 22.34 1 22 C1 25.63 1 29.26 1 33 C0.01 32.67 -0.98 32.34 -2 32 C-1.34 32 -0.68 32 0 32 C0 21.44 0 10.88 0 0 Z " fill="#1A1A1A" transform="translate(33,177)"/>
<path d="M0 0 C2.97 0 5.94 0 9 0 C8.68031467 3.51653861 8.37757864 5.53431968 6.125 8.3125 C2.54322082 11.15685406 -0.74108431 11.26660967 -5.125 11.234375 C-7 11 -7 11 -9 9.5 C-9.33 9.005 -9.66 8.51 -10 8 C-9.38125 7.7525 -8.7625 7.505 -8.125 7.25 C-5.64931313 5.79371361 -5.04874998 4.62187494 -4 2 C-2.68 2.66 -1.36 3.32 0 4 C0 2.68 0 1.36 0 0 Z " fill="#DE881D" transform="translate(210,84)"/>
<path d="M0 0 C6.40987767 4.22680339 12.72664703 8.57329164 19 13 C18.67 14.32 18.34 15.64 18 17 C16.328125 17.70703125 16.328125 17.70703125 14 18 C11.421875 16.63671875 11.421875 16.63671875 8.75 14.6875 C7.85796875 14.05199219 6.9659375 13.41648438 6.046875 12.76171875 C5.37140625 12.18035156 4.6959375 11.59898437 4 11 C4 10.34 4 9.68 4 9 C2.68 8.34 1.36 7.68 0 7 C0 4.69 0 2.38 0 0 Z " fill="#1B1B1B" transform="translate(68,187)"/>
<path d="M0 0 C3.375 1.25 3.375 1.25 6 3 C6.875 5.1875 6.875 5.1875 7 7 C6.01 7 5.02 7 4 7 C3.67 6.34 3.34 5.68 3 5 C0.4345406 7.5654594 0.45953913 9.47686668 0 13 C-1.65 13 -3.3 13 -5 13 C-5.66 11.68 -6.32 10.36 -7 9 C-7.99 9.495 -7.99 9.495 -9 10 C-8.34 7.36 -7.68 4.72 -7 2 C-7.66 1.67 -8.32 1.34 -9 1 C-5.92805092 -0.53597454 -3.39755707 -0.2265038 0 0 Z " fill="#EC901E" transform="translate(103,65)"/>
<path d="M0 0 C-1.0828125 0.86238281 -1.0828125 0.86238281 -2.1875 1.7421875 C-3.96869118 3.1720882 -5.7407835 4.61346133 -7.5 6.0703125 C-8.325 6.74835937 -9.15 7.42640625 -10 8.125 C-10.825 8.80820313 -11.65 9.49140625 -12.5 10.1953125 C-14.94545522 11.96062549 -17.16173842 13.01674509 -20 14 C-20.66 13.34 -21.32 12.68 -22 12 C-21.84378539 9.14007104 -21.00922794 8.01040517 -19.1015625 5.859375 C-12.71209126 0.41723862 -8.35072132 -1.14306452 0 0 Z " fill="#222222" transform="translate(119,0)"/>
<path d="M0 0 C0.33 0 0.66 0 1 0 C1 7.59 1 15.18 1 23 C1.66 22.67 2.32 22.34 3 22 C5.6723621 21.86584528 8.32250488 21.95681459 11 22 C11.33 20.68 11.66 19.36 12 18 C12.99 18.33 13.98 18.66 15 19 C15 20.32 15 21.64 15 23 C13.948125 23.391875 12.89625 23.78375 11.8125 24.1875 C8.00797091 25.85872027 5.55879992 27.63700581 3 31 C2.04291543 33.96596519 1.44973311 36.91899261 1 40 C0.67 40 0.34 40 0 40 C0 26.8 0 13.6 0 0 Z " fill="#181818" transform="translate(140,105)"/>
<path d="M0 0 C2.97 0 5.94 0 9 0 C10.82222673 5.59683925 11.70720555 11.18869356 12.53515625 17.01171875 C12.90666338 19.3999789 13.36022399 21.67302707 14 24 C12.02 23.67 10.04 23.34 8 23 C7.34 20.03 6.68 17.06 6 14 C4.35 14 2.7 14 1 14 C1.78375 13.525625 2.5675 13.05125 3.375 12.5625 C6.9310969 9.09107207 7.31347549 5.7954249 8 1 C5.69 1 3.38 1 1 1 C0.67 2.32 0.34 3.64 0 5 C0 3.35 0 1.7 0 0 Z " fill="#232322" transform="translate(30,81)"/>
<path d="M0 0 C6.9113364 0.47122748 12.72204161 3.20636006 19 6 C18.67 7.65 18.34 9.3 18 11 C13.51006131 10.41347648 9.77456816 9.2356462 5.625 7.4375 C4.56539063 6.98246094 3.50578125 6.52742187 2.4140625 6.05859375 C1.61742188 5.70925781 0.82078125 5.35992187 0 5 C0 3.35 0 1.7 0 0 Z " fill="#1D1D1D" transform="translate(120,156)"/>
<path d="M0 0 C3.3 0 6.6 0 10 0 C10 3.3 10 6.6 10 10 C6.7 10 3.4 10 0 10 C0 6.7 0 3.4 0 0 Z " fill="#747474" transform="translate(167,104)"/>
<path d="M0 0 C3.3 0 6.6 0 10 0 C10.33 0.99 10.66 1.98 11 3 C10.34 3 9.68 3 9 3 C9 2.34 9 1.68 9 1 C6.36 1 3.72 1 1 1 C1 10.24 1 19.48 1 29 C0.67 29 0.34 29 0 29 C-0.144375 27.906875 -0.28875 26.81375 -0.4375 25.6875 C-0.88288104 22.06877013 -0.88288104 22.06877013 -2 19 C-4.64 19 -7.28 19 -10 19 C-10.33 20.32 -10.66 21.64 -11 23 C-12.32 22.67 -13.64 22.34 -15 22 C-15 20.35 -15 18.7 -15 17 C-10.71 17 -6.42 17 -2 17 C-2 14.69 -2 12.38 -2 10 C-1.67 10 -1.34 10 -1 10 C-0.67 6.7 -0.34 3.4 0 0 Z " fill="#5C3B16" transform="translate(113,65)"/>
<path d="M0 0 C5.69827793 -0.59981873 11.13735416 1.03296186 16 4 C16.79296875 6.140625 16.79296875 6.140625 17 8 C12.85279711 9.16545483 10.29034851 8.80550177 6.25 7.375 C5.28578125 7.05273438 4.3215625 6.73046875 3.328125 6.3984375 C1 5 1 5 0.171875 2.3515625 C0.11515625 1.57554687 0.0584375 0.79953125 0 0 Z " fill="#1D1D1D" transform="translate(118,168)"/>
<path d="M0 0 C1.9962709 3.48913436 2.79109218 6.95816025 3.625 10.875 C3.88539063 12.06867188 4.14578125 13.26234375 4.4140625 14.4921875 C4.95735001 17.74466875 5.11061526 20.71170995 5 24 C3 23 3 23 2.1484375 21.14453125 C0.6483429 16.62151874 -0.37173481 12.83255247 0 8 C-1.65 8 -3.3 8 -5 8 C-4.938125 8.928125 -4.87625 9.85625 -4.8125 10.8125 C-5 14 -5 14 -6.51171875 15.69921875 C-7.00285156 16.12847656 -7.49398437 16.55773437 -8 17 C-8.02687279 15.18757948 -8.04633715 13.37504767 -8.0625 11.5625 C-8.07410156 10.55316406 -8.08570312 9.54382813 -8.09765625 8.50390625 C-8 6 -8 6 -7 5 C-4.66702567 4.95907063 -2.33294775 4.95758277 0 5 C0 3.35 0 1.7 0 0 Z " fill="#130F0D" transform="translate(131,69)"/>
<path d="M0 0 C2.97 0 5.94 0 9 0 C9 3.3 9 6.6 9 10 C6.03 10 3.06 10 0 10 C0 6.7 0 3.4 0 0 Z " fill="#DB871D" transform="translate(167,53)"/>
<path d="M0 0 C1.65 0.33 3.3 0.66 5 1 C5 4.3 5 7.6 5 11 C2.03 10.67 -0.94 10.34 -4 10 C-3.67 9.01 -3.34 8.02 -3 7 C-4.65 6.67 -6.3 6.34 -8 6 C-8 4.35 -8 2.7 -8 1 C-4 2 -4 2 0 3 C0 2.01 0 1.02 0 0 Z " fill="#E68E1D" transform="translate(214,71)"/>
<path d="M0 0 C0.66 0 1.32 0 2 0 C2 10.56 2 21.12 2 32 C1.34 32 0.68 32 0 32 C-3.44419134 20.47835991 -3.44419134 20.47835991 -3 15 C-2.34 15.66 -1.68 16.32 -1 17 C-0.67 11.39 -0.34 5.78 0 0 Z " fill="#E2E2E2" transform="translate(31,177)"/>
<path d="M0 0 C6.125 7.875 6.125 7.875 5.6875 11.8125 C5.460625 12.534375 5.23375 13.25625 5 14 C2.19099964 13.64582169 1.18543998 13.21351117 -0.703125 11.0390625 C-1.21359375 10.24242188 -1.7240625 9.44578125 -2.25 8.625 C-2.77078125 7.83351563 -3.2915625 7.04203125 -3.828125 6.2265625 C-5 4 -5 4 -5 1 C-3.35 0.67 -1.7 0.34 0 0 Z " fill="#1E1F1F" transform="translate(123,94)"/>
<path d="M0 0 C3.96 1.98 3.96 1.98 8 4 C8 4.66 8 5.32 8 6 C8.99 6.33 9.98 6.66 11 7 C11 9.31 11 11.62 11 14 C7.04920511 12.32850986 4.02772152 10.02772152 1 7 C0.125 3.1875 0.125 3.1875 0 0 Z " fill="#141414" transform="translate(54,191)"/>
<path d="M0 0 C0.33 0 0.66 0 1 0 C1.33 5.28 1.66 10.56 2 16 C3.27875 15.79375 4.5575 15.5875 5.875 15.375 C8.0546875 15.0234375 8.0546875 15.0234375 10 15 C10.66 15.66 11.32 16.32 12 17 C11.34 18.32 10.68 19.64 10 21 C11.65 21.33 13.3 21.66 15 22 C15 22.33 15 22.66 15 23 C7.80174292 23.48801743 7.80174292 23.48801743 4.125 21.25 C-0.04786445 16.83167293 -0.27081139 13.18340207 -0.125 7.25 C-0.11597656 6.55261719 -0.10695313 5.85523437 -0.09765625 5.13671875 C-0.07419888 3.42433042 -0.03833104 1.71211996 0 0 Z " fill="#E18B1D" transform="translate(89,72)"/>
<path d="M0 0 C4.05606165 0.46800711 7.46588679 0.87953208 11 3 C10.67 4.65 10.34 6.3 10 8 C8.54096742 7.69078116 7.08279278 7.37751201 5.625 7.0625 C4.81289062 6.88847656 4.00078125 6.71445313 3.1640625 6.53515625 C1 6 1 6 -1 5 C-0.67 3.35 -0.34 1.7 0 0 Z " fill="#1D1D1D" transform="translate(131,148)"/>
<path d="M0 0 C1.98 0.495 1.98 0.495 4 1 C4 4.96 4 8.92 4 13 C2.68 13.33 1.36 13.66 0 14 C-1 13 -1 13 -1.1328125 10.3125 C-1.13023438 9.219375 -1.12765625 8.12625 -1.125 7 C-1.12757812 5.906875 -1.13015625 4.81375 -1.1328125 3.6875 C-1 1 -1 1 0 0 Z " fill="#131313" transform="translate(127,124)"/>
<path d="M0 0 C1.98 0.495 1.98 0.495 4 1 C4 4.96 4 8.92 4 13 C2.68 13.33 1.36 13.66 0 14 C-1 13 -1 13 -1.1328125 10.3125 C-1.13023438 9.219375 -1.12765625 8.12625 -1.125 7 C-1.12757812 5.906875 -1.13015625 4.81375 -1.1328125 3.6875 C-1 1 -1 1 0 0 Z " fill="#0F0A08" transform="translate(74,73)"/>
<path d="M0 0 C1.21236328 0.04060547 1.21236328 0.04060547 2.44921875 0.08203125 C3.06410156 0.11683594 3.67898437 0.15164063 4.3125 0.1875 C1.64496846 3.74420872 -0.93951345 6.75130874 -4.6875 9.1875 C-7 8.9375 -7 8.9375 -8.6875 8.1875 C-7.89324492 2.31001244 -6.14505479 -0.2671763 0 0 Z " fill="#222222" transform="translate(94.6875,-0.1875)"/>
<path d="M0 0 C0.33 0 0.66 0 1 0 C1 2.64 1 5.28 1 8 C-0.98 8.33 -2.96 8.66 -5 9 C-5.33 15.6 -5.66 22.2 -6 29 C-8.97 29 -11.94 29 -15 29 C-15 28.67 -15 28.34 -15 28 C-12.36 28 -9.72 28 -7 28 C-7.04600342 27.40985107 -7.09200684 26.81970215 -7.1394043 26.21166992 C-7.33856414 23.53787669 -7.513288 20.8630296 -7.6875 18.1875 C-7.76033203 17.25873047 -7.83316406 16.32996094 -7.90820312 15.37304688 C-7.96298828 14.48037109 -8.01777344 13.58769531 -8.07421875 12.66796875 C-8.13182373 11.84578857 -8.18942871 11.0236084 -8.2487793 10.17651367 C-8 8 -8 8 -6.74536133 6.20825195 C-5 5 -5 5 -1 5 C-0.67 3.35 -0.34 1.7 0 0 Z " fill="#C1771B" transform="translate(129,66)"/>
<path d="M0 0 C2.97 0 5.94 0 9 0 C10.19287411 3.87684087 11 6.91621923 11 11 C8.59242867 13.59276913 7.31246095 13.98197341 3.75 14.1875 C2.8425 14.125625 1.935 14.06375 1 14 C1.78375 13.525625 2.5675 13.05125 3.375 12.5625 C6.9310969 9.09107207 7.31347549 5.7954249 8 1 C5.69 1 3.38 1 1 1 C0.67 2.32 0.34 3.64 0 5 C0 3.35 0 1.7 0 0 Z " fill="#443320" transform="translate(30,81)"/>
<path d="M0 0 C2.4375 0.1875 2.4375 0.1875 3.4375 1.1875 C3.50994053 3.20714199 3.52127188 5.22917124 3.5 7.25 C3.49097656 8.35472656 3.48195313 9.45945313 3.47265625 10.59765625 C3.46105469 11.45230469 3.44945312 12.30695313 3.4375 13.1875 C3.1075 13.1875 2.7775 13.1875 2.4375 13.1875 C2.1075 9.8875 1.7775 6.5875 1.4375 3.1875 C0.4475 2.8575 -0.5425 2.5275 -1.5625 2.1875 C-1.5625 5.4875 -1.5625 8.7875 -1.5625 12.1875 C-2.5525 12.1875 -3.5425 12.1875 -4.5625 12.1875 C-4.61645478 10.56286158 -4.65527195 8.93771459 -4.6875 7.3125 C-4.71070313 6.40757812 -4.73390625 5.50265625 -4.7578125 4.5703125 C-4.47165573 1.07919991 -3.45791449 0.25301813 0 0 Z " fill="#E6E6E6" transform="translate(40.5625,176.8125)"/>
<path d="M0 0 C2.64 0 5.28 0 8 0 C8 5.94 8 11.88 8 18 C7.01 17.67 6.02 17.34 5 17 C4.34 17.66 3.68 18.32 3 19 C3.68804496 12.80759538 5.28048715 6.98044406 7 1 C4.69 1 2.38 1 0 1 C0 0.67 0 0.34 0 0 Z " fill="#473624" transform="translate(55,65)"/>
<path d="M0 0 C0.99 0.33 1.98 0.66 3 1 C3 5.95 3 10.9 3 16 C1.68 15.67 0.36 15.34 -1 15 C-1.02685412 12.68756208 -1.04632841 10.3750373 -1.0625 8.0625 C-1.07410156 6.77472656 -1.08570312 5.48695312 -1.09765625 4.16015625 C-1 1 -1 1 0 0 Z " fill="#2E2821" transform="translate(27,72)"/>
<path d="M0 0 C2.26954631 3.40431947 2.36549949 5.16524202 2.625 9.1875 C2.69976562 10.27417969 2.77453125 11.36085938 2.8515625 12.48046875 C2.92503906 13.72763672 2.92503906 13.72763672 3 15 C5.97 15 8.94 15 12 15 C12 15.33 12 15.66 12 16 C8.37 16.33 4.74 16.66 1 17 C-2.10204082 4.20408163 -2.10204082 4.20408163 0 0 Z " fill="#291B0B" transform="translate(148,79)"/>
<path d="M0 0 C0.33 0 0.66 0 1 0 C1 6.6 1 13.2 1 20 C0.67 20 0.34 20 0 20 C-0.33 17.03 -0.66 14.06 -1 11 C-1.99 12.485 -1.99 12.485 -3 14 C-3.66 14 -4.32 14 -5 14 C-4.67 11.36 -4.34 8.72 -4 6 C-3.01 5.67 -2.02 5.34 -1 5 C-0.67 3.35 -0.34 1.7 0 0 Z " fill="#160E07" transform="translate(166,74)"/>
<path d="M0 0 C0.99 0.495 0.99 0.495 2 1 C2.34375 3.546875 2.34375 3.546875 2.5 6.75 C2.70686569 10.94937359 3.23959903 14.16686884 5 18 C3.35 18.33 1.7 18.66 0 19 C0 12.73 0 6.46 0 0 Z " fill="#28190D" transform="translate(87,74)"/>
<path d="M0 0 C4.62 0 9.24 0 14 0 C14 0.66 14 1.32 14 2 C11.03 2 8.06 2 5 2 C5 3.32 5 4.64 5 6 C3.68 5.67 2.36 5.34 1 5 C0.67 3.35 0.34 1.7 0 0 Z " fill="#362815" transform="translate(205,82)"/>
<path d="M0 0 C6.15234375 -0.09765625 6.15234375 -0.09765625 8 0 C9 1 9 1 9.125 4.625 C9.08304465 8.49887722 8.63639059 12.18165644 8 16 C7.01 15.67 6.02 15.34 5 15 C5.14204741 13.41632253 5.28880153 11.83306682 5.4375 10.25 C5.51871094 9.36828125 5.59992188 8.4865625 5.68359375 7.578125 C5.96238465 5.30649548 6.38790577 3.20148177 7 1 C4.69 1 2.38 1 0 1 C0 0.67 0 0.34 0 0 Z " fill="#382410" transform="translate(158,65)"/>
<path d="M0 0 C1.134375 0.020625 2.26875 0.04125 3.4375 0.0625 C2.1175 2.3725 0.7975 4.6825 -0.5625 7.0625 C-2.2125 6.7325 -3.8625 6.4025 -5.5625 6.0625 C-4.48849278 0.07874549 -4.48849278 0.07874549 0 0 Z " fill="#212121" transform="translate(49.5625,-0.0625)"/>
<path d="M0 0 C2.64 0 5.28 0 8 0 C7.38909774 6.47556391 7.38909774 6.47556391 5.5625 8.9375 C4 10 4 10 2 10 C1.25 8.3125 1.25 8.3125 1 6 C2.9375 3.25 2.9375 3.25 5 1 C3.35 1 1.7 1 0 1 C0 0.67 0 0.34 0 0 Z " fill="#E68E1E" transform="translate(103,84)"/>
<path d="M0 0 C0.33 0 0.66 0 1 0 C1 10.56 1 21.12 1 32 C0.34 32 -0.32 32 -1 32 C-1.33 29.69 -1.66 27.38 -2 25 C-1.34 25 -0.68 25 0 25 C0 16.75 0 8.5 0 0 Z " fill="#FEFEFE" transform="translate(32,177)"/>
<path d="M0 0 C2.97 0 5.94 0 9 0 C9.33 0.66 9.66 1.32 10 2 C10.66 1.34 11.32 0.68 12 0 C14.625 -0.125 14.625 -0.125 17 0 C17 2.97 17 5.94 17 9 C15.02 9 13.04 9 11 9 C11 8.67 11 8.34 11 8 C12.65 8 14.3 8 16 8 C16 5.69 16 3.38 16 1 C15.01 2.485 15.01 2.485 14 4 C10.875 4.1875 10.875 4.1875 8 4 C8 3.01 8 2.02 8 1 C5.36 1 2.72 1 0 1 C0 0.67 0 0.34 0 0 Z " fill="#BE731D" transform="translate(179,65)"/>
<path d="M0 0 C0.33 0.99 0.66 1.98 1 3 C1.99 3.33 2.98 3.66 4 4 C3.88637738 5.4800841 3.75877092 6.95910074 3.625 8.4375 C3.55539063 9.26121094 3.48578125 10.08492187 3.4140625 10.93359375 C3.27742188 11.61550781 3.14078125 12.29742187 3 13 C2.01 13.495 2.01 13.495 1 14 C0.63495397 12.41913952 0.28339494 10.83516093 -0.0625 9.25 C-0.25972656 8.36828125 -0.45695312 7.4865625 -0.66015625 6.578125 C-0.99825872 4.01320972 -0.81158635 2.42908361 0 0 Z " fill="#100C0B" transform="translate(42,89)"/>
<path d="M0 0 C2.31 0 4.62 0 7 0 C6.44225728 3.23490776 5.62788492 4.97855006 3 7 C2.01 7 1.02 7 0 7 C0 4.69 0 2.38 0 0 Z " fill="#F5961D" transform="translate(31,82)"/>
<path d="M0 0 C2.64 0 5.28 0 8 0 C8 2.64 8 5.28 8 8 C6.85073734 7.04578192 5.70569459 6.08647955 4.5625 5.125 C3.92441406 4.59132813 3.28632813 4.05765625 2.62890625 3.5078125 C1 2 1 2 0 0 Z " fill="#302920" transform="translate(226,0)"/>
<path d="M0 0 C0.33 0 0.66 0 1 0 C1 1.65 1 3.3 1 5 C3.31 5 5.62 5 8 5 C8 5.99 8 6.98 8 8 C5.03 8 2.06 8 -1 8 C-1.125 2.25 -1.125 2.25 0 0 Z " fill="#DFDFDF" transform="translate(37,202)"/>
<path d="M0 0 C1.32 0.99 2.64 1.98 4 3 C3.34 4.32 2.68 5.64 2 7 C0.68 6.67 -0.64 6.34 -2 6 C-2 5.01 -2 4.02 -2 3 C-4.31 3 -6.62 3 -9 3 C-9 2.67 -9 2.34 -9 2 C-6.03 2 -3.06 2 0 2 C0 1.34 0 0.68 0 0 Z " fill="#362A1C" transform="translate(73,92)"/>
<path d="M0 0 C2.4375 0.6875 2.4375 0.6875 5 2 C5.8125 4.625 5.8125 4.625 6 7 C4.33388095 7.042721 2.66617115 7.04063832 1 7 C0 6 0 6 -0.0625 2.9375 C-0.041875 1.968125 -0.02125 0.99875 0 0 Z " fill="#171717" transform="translate(68,202)"/>
<path d="M0 0 C0.33 0 0.66 0 1 0 C1.33 5.28 1.66 10.56 2 16 C2.99 16.33 3.98 16.66 5 17 C5.33 17.99 5.66 18.98 6 20 C5.01 20 4.02 20 3 20 C-0.33419111 15.99741627 -0.37352741 12.17208061 -0.1875 7.1875 C-0.16719727 6.14819336 -0.16719727 6.14819336 -0.14648438 5.08789062 C-0.11138845 3.39158735 -0.05758943 1.69568864 0 0 Z " fill="#D4821D" transform="translate(89,72)"/>
<path d="M0 0 C0.99 0.33 1.98 0.66 3 1 C2.67 1.33 2.34 1.66 2 2 C1.76636119 3.84891946 1.58696365 5.70488031 1.4375 7.5625 C1.35371094 8.57441406 1.26992187 9.58632812 1.18359375 10.62890625 C1.12300781 11.41136719 1.06242187 12.19382812 1 13 C1.66 13.33 2.32 13.66 3 14 C1.68 13.67 0.36 13.34 -1 13 C-1.02686553 11.02090602 -1.04633375 9.04171029 -1.0625 7.0625 C-1.07410156 5.96035156 -1.08570312 4.85820313 -1.09765625 3.72265625 C-1 1 -1 1 0 0 Z " fill="#34261A" transform="translate(74,73)"/>
<path d="M0 0 C1.07310858 3.27185553 0.89263102 5.42947592 0.0625 8.75 C-0.22947266 9.94882813 -0.22947266 9.94882813 -0.52734375 11.171875 C-0.68332031 11.77515625 -0.83929688 12.3784375 -1 13 C-1.66 13 -2.32 13 -3 13 C-3.33 9.7 -3.66 6.4 -4 3 C-3.01 2.67 -2.02 2.34 -1 2 C-0.67 1.34 -0.34 0.68 0 0 Z " fill="#392311" transform="translate(157,66)"/>
<path d="M0 0 C2.31 0 4.62 0 7 0 C7 0.66 7 1.32 7 2 C6.34 2 5.68 2 5 2 C4.67 2.99 4.34 3.98 4 5 C2.35 4.67 0.7 4.34 -1 4 C-0.67 2.68 -0.34 1.36 0 0 Z " fill="#212121" transform="translate(75,0)"/>
<path d="M0 0 C2 2 4 4 6 6 C3.10765685 6.82638376 1.11257569 7 -2 7 C-3.75 5 -3.75 5 -5 3 C-4.360625 2.87625 -3.72125 2.7525 -3.0625 2.625 C-2.0415625 2.315625 -2.0415625 2.315625 -1 2 C-0.67 1.34 -0.34 0.68 0 0 Z " fill="#F5951F" transform="translate(211,85)"/>
<path d="M0 0 C-0.33 2.64 -0.66 5.28 -1 8 C-1.33 7.34 -1.66 6.68 -2 6 C-2.66 6 -3.32 6 -4 6 C-5.625 3.5 -5.625 3.5 -7 1 C-4 0 -4 0 0 0 Z " fill="#131313" transform="translate(66,168)"/>
<path d="M0 0 C-0.99 1.485 -0.99 1.485 -2 3 C0.64 3 3.28 3 6 3 C6 3.33 6 3.66 6 4 C2.04 4 -1.92 4 -6 4 C-6.66 2.68 -7.32 1.36 -8 0 C-2.25 -1.125 -2.25 -1.125 0 0 Z " fill="#F8961C" transform="translate(212,78)"/>
<path d="M0 0 C3.96 0 7.92 0 12 0 C12 0.33 12 0.66 12 1 C9.36 1 6.72 1 4 1 C4.33 2.98 4.66 4.96 5 7 C4.01 7.495 4.01 7.495 3 8 C0 3.375 0 3.375 0 0 Z " fill="#513820" transform="translate(35,65)"/>
<path d="M0 0 C0.66 0.33 1.32 0.66 2 1 C1.67 1.99 1.34 2.98 1 4 C0.34 4 -0.32 4 -1 4 C-1 4.66 -1 5.32 -1 6 C0.65 5.34 2.3 4.68 4 4 C4.33 4.66 4.66 5.32 5 6 C4.34 6 3.68 6 3 6 C2.67 6.66 2.34 7.32 2 8 C-0.97 7.505 -0.97 7.505 -4 7 C-3.34 6.67 -2.68 6.34 -2 6 C-2.33 4.35 -2.66 2.7 -3 1 C-2.01 0.67 -1.02 0.34 0 0 Z " fill="#E58E22" transform="translate(75,66)"/>
<path d="M0 0 C0.99 0 1.98 0 3 0 C1.14285714 7.57142857 1.14285714 7.57142857 -2 10 C-2.25 3.375 -2.25 3.375 0 0 Z " fill="#0B0A09" transform="translate(4,0)"/>
<path d="M0 0 C0.99 0.33 1.98 0.66 3 1 C3 2.32 3 3.64 3 5 C-0.96 5 -4.92 5 -9 5 C-9 4.67 -9 4.34 -9 4 C-6.36 4 -3.72 4 -1 4 C-0.67 2.68 -0.34 1.36 0 0 Z " fill="#252525" transform="translate(152,123)"/>
<path d="M0 0 C1.485 0.99 1.485 0.99 3 2 C3.51171875 4.6015625 3.51171875 4.6015625 3.6875 7.625 C3.75324219 8.62789062 3.81898437 9.63078125 3.88671875 10.6640625 C3.92410156 11.43492188 3.96148437 12.20578125 4 13 C3.34 13 2.68 13 2 13 C1.66127487 11.58461283 1.32925376 10.16762037 1 8.75 C0.814375 7.96109375 0.62875 7.1721875 0.4375 6.359375 C0 4 0 4 0 0 Z " fill="#3A2E22" transform="translate(48,67)"/>
<path d="M0 0 C0.33 0 0.66 0 1 0 C1.33 2.31 1.66 4.62 2 7 C1.34 7 0.68 7 0 7 C0 7.66 0 8.32 0 9 C-1.32 9 -2.64 9 -4 9 C-4 6 -4 6 -2.5625 4.5 C-2.046875 4.005 -1.53125 3.51 -1 3 C-0.67 2.01 -0.34 1.02 0 0 Z " fill="#332A1E" transform="translate(86,88)"/>
<path d="M0 0 C0.66 1.32 1.32 2.64 2 4 C1.01 4.66 0.02 5.32 -1 6 C-2.20450304 8.55183404 -2.20450304 8.55183404 -3 11 C-4.46534385 7.19010598 -3.55203911 4.6758821 -2 1 C-1.34 0.67 -0.68 0.34 0 0 Z " fill="#F6951D" transform="translate(139,73)"/>
<path d="M0 0 C0.99 0 1.98 0 3 0 C4.4783226 2.95664519 4.06032783 5.74229737 4 9 C3.34 7.68 2.68 6.36 2 5 C0.68 5.33 -0.64 5.66 -2 6 C-1.34 4.02 -0.68 2.04 0 0 Z " fill="#272723" transform="translate(59,81)"/>
<path d="M0 0 C2.09749995 2.35968744 2.96905704 3.54616994 3.1875 6.75 C3.125625 7.4925 3.06375 8.235 3 9 C2.01 8.67 1.02 8.34 0 8 C-0.66 8.66 -1.32 9.32 -2 10 C-1.54177532 6.53058454 -1.10868317 3.32604951 0 0 Z " fill="#3D2F24" transform="translate(60,74)"/>
<path d="M0 0 C1.10844919 3.32534757 0.84454356 5.62182575 0 9 C-0.66 9 -1.32 9 -2 9 C-5 5.53846154 -5 5.53846154 -5 3 C-3.35 3 -1.7 3 0 3 C0 2.01 0 1.02 0 0 Z " fill="#EC901F" transform="translate(110,72)"/>
<path d="M0 0 C2.62187494 1.04874998 3.79371361 1.64931313 5.25 4.125 C5.4975 4.74375 5.745 5.3625 6 6 C5.34 6.66 4.68 7.32 4 8 C2.35 6.02 0.7 4.04 -1 2 C-0.67 1.34 -0.34 0.68 0 0 Z " fill="#E38A1F" transform="translate(212,66)"/>
<path d="M0 0 C1.2380014 3.57644848 0.74926071 6.33694766 0 10 C-1.5625 8.875 -1.5625 8.875 -3 7 C-2.8125 3.875 -2.8125 3.875 -2 1 C-1.34 0.67 -0.68 0.34 0 0 Z " fill="#D0D0D0" transform="translate(39,197)"/>
<path d="M0 0 C3.3 0 6.6 0 10 0 C9.67 1.32 9.34 2.64 9 4 C7.68 3.67 6.36 3.34 5 3 C5 2.34 5 1.68 5 1 C3.35 1 1.7 1 0 1 C0 0.67 0 0.34 0 0 Z " fill="#27211C" transform="translate(30,78)"/>
<path d="M0 0 C2.64 0.33 5.28 0.66 8 1 C7.67 1.99 7.34 2.98 7 4 C2.25 3.125 2.25 3.125 0 2 C0 1.34 0 0.68 0 0 Z " fill="#171719" transform="translate(22,94)"/>
<path d="M0 0 C0.33 0 0.66 0 1 0 C1.08159574 4.16138263 0.98248524 7.9472484 0 12 C-0.33 12 -0.66 12 -1 12 C-1.33 9.03 -1.66 6.06 -2 3 C-1.34 3 -0.68 3 0 3 C0 2.01 0 1.02 0 0 Z " fill="#1C1612" transform="translate(143,67)"/>
<path d="M0 0 C3 3 3 3 3.1875 6.1875 C3.0946875 7.5796875 3.0946875 7.5796875 3 9 C2.34 9 1.68 9 1 9 C0.67 6.03 0.34 3.06 0 0 Z " fill="#E4E4E4" transform="translate(54,200)"/>
<path d="M0 0 C0 1.65 0 3.3 0 5 C-1.32 5.33 -2.64 5.66 -4 6 C-3.625 3.5625 -3.625 3.5625 -3 1 C-1 0 -1 0 0 0 Z " fill="#1C1C1C" transform="translate(155,133)"/>
<path d="M0 0 C1.32 0 2.64 0 4 0 C3.67 1.65 3.34 3.3 3 5 C2.01 5 1.02 5 0 5 C0 3.35 0 1.7 0 0 Z " fill="#1E140A" transform="translate(99,83)"/>
<path d="M0 0 C1.32 0.33 2.64 0.66 4 1 C4 2.32 4 3.64 4 5 C2.68 5 1.36 5 0 5 C0 3.35 0 1.7 0 0 Z " fill="#2F251B" transform="translate(206,72)"/>
<path d="M0 0 C0.99 0 1.98 0 3 0 C3 1.65 3 3.3 3 5 C1.68 5 0.36 5 -1 5 C-0.67 3.35 -0.34 1.7 0 0 Z " fill="#26180C" transform="translate(99,72)"/>
<path d="M0 0 C0.99 0.66 1.98 1.32 3 2 C2.34 4.31 1.68 6.62 1 9 C-0.65 9 -2.3 9 -4 9 C-2.68 8.67 -1.36 8.34 0 8 C0 6.35 0 4.7 0 3 C-0.66 2.67 -1.32 2.34 -2 2 C-1.34 2 -0.68 2 0 2 C0 1.34 0 0.68 0 0 Z " fill="#D4841D" transform="translate(102,69)"/>
<path d="M0 0 C0.66 0.99 1.32 1.98 2 3 C2.66 2.67 3.32 2.34 4 2 C3 4 2 6 1 8 C0.34 8 -0.32 8 -1 8 C-0.67 5.36 -0.34 2.72 0 0 Z " fill="#2C1D0C" transform="translate(162,80)"/>
<path d="M0 0 C1.98 0.495 1.98 0.495 4 1 C3.67 2.65 3.34 4.3 3 6 C2.34 5.67 1.68 5.34 1 5 C0.34 5 -0.32 5 -1 5 C-0.67 3.35 -0.34 1.7 0 0 Z " fill="#F5951C" transform="translate(33,69)"/>
<path d="M0 0 C0.99 0 1.98 0 3 0 C3 2.31 3 4.62 3 7 C2.34 7 1.68 7 1 7 C0.67 4.69 0.34 2.38 0 0 Z " fill="#F7F7F7" transform="translate(30,202)"/>
<path d="M0 0 C2 3 2 3 2 7 C1.01 7.33 0.02 7.66 -1 8 C-1.125 2.25 -1.125 2.25 0 0 Z " fill="#472D10" transform="translate(148,79)"/>
<path d="M0 0 C1.485 0.99 1.485 0.99 3 2 C3 3.32 3 4.64 3 6 C1.68 6.33 0.36 6.66 -1 7 C-0.67 4.69 -0.34 2.38 0 0 Z " fill="#D7841D" transform="translate(54,66)"/>
</svg>
