<?xml version="1.0" encoding="UTF-8"?>
<svg version="1.1" xmlns="http://www.w3.org/2000/svg" width="230" height="226">
<path d="M0 0 C75.9 0 151.8 0 230 0 C230 74.58 230 149.16 230 226 C154.1 226 78.2 226 0 226 C0 151.42 0 76.84 0 0 Z " fill="#FDFDFD" transform="translate(0,0)"/>
<path d="M0 0 C0.66 0 1.32 0 2 0 C2 3.96 2 7.92 2 12 C3.5778125 11.87625 3.5778125 11.87625 5.1875 11.75 C9.64416239 12.04224016 10.93040324 12.84513666 14 16 C16.72913695 19.82272637 17.38302291 22.45926268 17.41992188 27.13208008 C17.43583374 28.34716751 17.45174561 29.56225494 17.46813965 30.81416321 C17.46834106 32.11943466 17.46854248 33.42470612 17.46875 34.76953125 C17.4758586 36.13327851 17.48355862 37.4970228 17.49182129 38.86076355 C17.5052474 41.71626091 17.50684423 44.57148192 17.50097656 47.42700195 C17.49509215 51.06874075 17.52562552 54.70914093 17.56609344 58.35062122 C17.59207455 61.1672823 17.5948384 63.98362588 17.59120178 66.80039024 C17.59369728 68.7900005 17.61832667 70.77954377 17.64343262 72.76899719 C17.5935205 79.33716766 17.23871106 84.13822332 13.42077637 89.60160828 C12 91 12 91 8.4375 92.5 C4.66374074 94.14673131 4.5055921 94.41583607 3 97.9375 C2.773125 98.60652344 2.54625 99.27554688 2.3125 99.96484375 C0.2898813 103.10110667 -2.63038721 104.6029798 -6 106 C-8.85818755 106.49808284 -11.62071179 106.45610595 -14.51464844 106.37133789 C-15.33680847 106.36400635 -16.15896851 106.3566748 -17.00604248 106.34912109 C-18.78104387 106.33174408 -20.55597769 106.30572101 -22.33074188 106.27189827 C-25.14905938 106.22195298 -27.96600073 106.20322369 -30.784729 106.19371033 C-38.79441655 106.16376632 -46.80290442 106.09934432 -54.81152344 105.96264648 C-59.72193069 105.88105187 -64.63022198 105.85373503 -69.5412674 105.85992241 C-71.40240646 105.85182157 -73.26357969 105.82357802 -75.12407684 105.7740345 C-87.14443787 105.27818972 -87.14443787 105.27818972 -97.21460342 111.01582241 C-99.28416455 113.23629261 -101.15439841 115.59227292 -103 118 C-103.33 118 -103.66 118 -104 118 C-104 114.04 -104 110.08 -104 106 C-105.051875 105.9175 -106.10375 105.835 -107.1875 105.75 C-111.42420407 104.91655002 -113.05421401 104.10944077 -116 101 C-119.80516019 94.40012843 -119.45103474 87.87316159 -119.43359375 80.40234375 C-119.4388356 79.09471573 -119.44407745 77.78708771 -119.44947815 76.43983459 C-119.45837683 73.68204034 -119.45602219 70.9245362 -119.44604492 68.16674805 C-119.43453718 64.64385131 -119.45480904 61.12195431 -119.48396206 57.5991888 C-119.50677696 54.22102153 -119.49985607 50.84308612 -119.49609375 47.46484375 C-119.50732773 46.20534409 -119.51856171 44.94584442 -119.53013611 43.6481781 C-119.47841527 37.15231255 -119.4427697 32.91148533 -115 28 C-114.54625 27.401875 -114.0925 26.80375 -113.625 26.1875 C-111.24662926 24.44945984 -108.87947295 24.31994144 -106 24 C-105.938125 23.29875 -105.87625 22.5975 -105.8125 21.875 C-104.71162059 17.97958055 -102.8131575 15.8770929 -100 13 C-95.70209484 10.67892645 -91.55158476 10.75504392 -86.78833008 10.83984375 C-85.56774902 10.84886971 -85.56774902 10.84886971 -84.32250977 10.858078 C-82.56009025 10.87124363 -80.79769678 10.8883622 -79.03534889 10.90899658 C-75.27751826 10.94772329 -71.5199523 10.94973987 -67.76195049 10.95379639 C-60.7727114 10.96151821 -53.78438246 10.98297972 -46.7956543 11.07177734 C-41.92639539 11.13222633 -37.05911414 11.14351308 -32.1895504 11.12307739 C-30.34164112 11.12434851 -28.49364892 11.14347585 -26.6461277 11.18136597 C-16.04175718 11.7513825 -16.04175718 11.7513825 -6.64730835 7.69824219 C-4.22263199 5.24333956 -2.1377106 2.69945051 0 0 Z " fill="#070706" transform="translate(176,34)"/>
<path d="M0 0 C0.00364563 0.69633545 0.00729126 1.3926709 0.01104736 2.11010742 C0.04905256 8.70071834 0.10604574 15.29086694 0.18390274 21.88113403 C0.22326475 25.26859356 0.25550766 28.65579755 0.27099609 32.04345703 C0.29247832 35.94606166 0.33916004 39.84768949 0.390625 43.75 C0.39185364 44.95551514 0.39308228 46.16103027 0.39434814 47.40307617 C0.51511365 54.38847891 1.23077313 59.06359971 5 65 C8.38366804 68.17859725 11.53866439 69.11758004 16.1191864 69.15821838 C16.95631165 69.1680072 17.79343689 69.17779602 18.65592957 69.18788147 C19.57086685 69.19363693 20.48580414 69.1993924 21.4284668 69.20532227 C22.87752914 69.22017166 22.87752914 69.22017166 24.35586548 69.23532104 C27.55362485 69.2669453 30.75139908 69.29169722 33.94921875 69.31640625 C36.16453948 69.33697497 38.37985628 69.35797142 40.59516907 69.37937927 C46.42962461 69.43460837 52.26411563 69.484014 58.09863281 69.53222656 C64.05081341 69.58243543 70.00294242 69.63812471 75.95507812 69.69335938 C87.63667469 69.80095122 99.31831603 69.90239396 111 70 C110.2592182 74.85985422 108.75806717 76.76631429 105 80 C101.21227042 82.59552549 97.23773493 82.23064596 92.82592773 82.14428711 C91.12291978 82.12848731 89.41991176 82.1126948 87.71690369 82.09690857 C86.8158534 82.08487333 85.91480312 82.0728381 84.98644829 82.06043816 C80.19619309 82.00387773 75.40577137 82.00450347 70.61523438 81.99414062 C64.52728309 81.97664105 58.44062138 81.9428773 52.35327148 81.8527832 C47.42673852 81.78135864 42.50253381 81.76420715 37.57554817 81.78204536 C35.70609894 81.77893896 33.83656818 81.75624958 31.96761894 81.71290398 C19.8940237 81.25814371 19.8940237 81.25814371 9.77816105 87.0206461 C7.71061271 89.23932969 5.84280456 91.59351332 4 94 C3.67 94 3.34 94 3 94 C3 90.04 3 86.08 3 82 C1.948125 81.9175 0.89625 81.835 -0.1875 81.75 C-4.42420407 80.91655002 -6.05421401 80.10944077 -9 77 C-12.80516019 70.40012843 -12.45103474 63.87316159 -12.43359375 56.40234375 C-12.4388356 55.09471573 -12.44407745 53.78708771 -12.44947815 52.43983459 C-12.45837683 49.68204034 -12.45602219 46.9245362 -12.44604492 44.16674805 C-12.43453718 40.64385131 -12.45480904 37.12195431 -12.48396206 33.5991888 C-12.50677696 30.22102153 -12.49985607 26.84308612 -12.49609375 23.46484375 C-12.51294472 21.57559425 -12.51294472 21.57559425 -12.53013611 19.6481781 C-12.4444422 8.88547367 -12.4444422 8.88547367 -8 4 C-7.484375 3.401875 -6.96875 2.80375 -6.4375 2.1875 C-4.42356012 0.52381053 -2.59454614 0 0 0 Z " fill="#1F9CD6" transform="translate(69,58)"/>
<path d="M0 0 C0.66 0 1.32 0 2 0 C2 3.96 2 7.92 2 12 C3.5778125 11.87625 3.5778125 11.87625 5.1875 11.75 C9.64416239 12.04224016 10.93040324 12.84513666 14 16 C16.72913695 19.82272637 17.38302291 22.45926268 17.41992188 27.13208008 C17.44378967 28.95471123 17.44378967 28.95471123 17.46813965 30.81416321 C17.46834106 32.11943466 17.46854248 33.42470612 17.46875 34.76953125 C17.4758586 36.13327851 17.48355862 37.4970228 17.49182129 38.86076355 C17.5052474 41.71626091 17.50684423 44.57148192 17.50097656 47.42700195 C17.49509215 51.06874075 17.52562552 54.70914093 17.56609344 58.35062122 C17.59207455 61.1672823 17.5948384 63.98362588 17.59120178 66.80039024 C17.59369728 68.7900005 17.61832667 70.77954377 17.64343262 72.76899719 C17.5895755 79.85630791 17.26889786 85.78971747 12 91 C9.33860613 92.61460818 8.17862937 93 5 93 C4.99453156 91.95549683 4.99453156 91.95549683 4.98895264 90.88989258 C4.95094744 84.29928166 4.89395426 77.70913306 4.81609726 71.11886597 C4.77673525 67.73140644 4.74449234 64.34420245 4.72900391 60.95654297 C4.70752168 57.05393834 4.66083996 53.15231051 4.609375 49.25 C4.60814636 48.04448486 4.60691772 46.83896973 4.60565186 45.59692383 C4.49145132 38.99125704 4.29696429 33.27675023 0 28 C-5.61081377 23.93433365 -11.16571088 23.41591188 -17.90429688 23.45410156 C-18.861315 23.44376389 -19.81833313 23.43342621 -20.80435181 23.42277527 C-23.94265867 23.39346427 -27.08031731 23.39185055 -30.21875 23.390625 C-32.40451275 23.37563549 -34.5902642 23.35890673 -36.77600098 23.34051514 C-42.51013728 23.2969163 -48.24412079 23.27685894 -53.97839355 23.26177979 C-59.83724981 23.24218189 -65.69594173 23.20021483 -71.5546875 23.16015625 C-83.03640755 23.08493489 -94.51809067 23.03459443 -106 23 C-105.12842981 18.62320187 -103.0873672 16.22770208 -100 13 C-95.70621848 10.67338345 -91.54981114 10.7550755 -86.78833008 10.83984375 C-85.56774902 10.84886971 -85.56774902 10.84886971 -84.32250977 10.858078 C-82.56009025 10.87124363 -80.79769678 10.8883622 -79.03534889 10.90899658 C-75.27751826 10.94772329 -71.5199523 10.94973987 -67.76195049 10.95379639 C-60.7727114 10.96151821 -53.78438246 10.98297972 -46.7956543 11.07177734 C-41.92639539 11.13222633 -37.05911414 11.14351308 -32.1895504 11.12307739 C-30.34164112 11.12434851 -28.49364892 11.14347585 -26.6461277 11.18136597 C-16.04175718 11.7513825 -16.04175718 11.7513825 -6.64730835 7.69824219 C-4.22263199 5.24333956 -2.1377106 2.69945051 0 0 Z " fill="#F69023" transform="translate(176,34)"/>
<path d="M0 0 C1.94140625 0.3828125 1.94140625 0.3828125 4.44140625 2.0078125 C6.39703107 5.10421846 6.54165102 6.78134385 5.94140625 10.3828125 C4.44140625 12.7578125 4.44140625 12.7578125 1.94140625 14.3828125 C-1.02175425 14.96709767 -2.96018936 14.77626068 -6.05859375 14.3828125 C-8.76275176 12.18568411 -9.0035212 10.82339289 -9.43359375 7.3828125 C-8.65986906 1.19301496 -6.313202 -0.34879569 0 0 Z " fill="#E8E8E8" transform="translate(107.05859375,100.6171875)"/>
<path d="M0 0 C0.66 0 1.32 0 2 0 C2 1.98 2 3.96 2 6 C3.093125 5.773125 4.18625 5.54625 5.3125 5.3125 C9 5 9 5 10.9375 5.9375 C12.62748775 9.21806446 12.64238781 12.44545413 12 16 C10.3125 18.5625 10.3125 18.5625 8 20 C5.4375 19.6875 5.4375 19.6875 3 19 C2.01 19.33 1.02 19.66 0 20 C0 13.4 0 6.8 0 0 Z " fill="#D5D5D5" transform="translate(111,70)"/>
<path d="M0 0 C3 2 3 2 3.6875 5.125 C3.790625 6.07375 3.89375 7.0225 4 8 C0.7 8 -2.6 8 -6 8 C-5.67 8.66 -5.34 9.32 -5 10 C-2.36 10 0.28 10 3 10 C2.34 11.32 1.68 12.64 1 14 C-7.21324503 14.61986755 -7.21324503 14.61986755 -10.0625 12.375 C-11.27652573 9.29946814 -11.47842171 7.28060601 -11 4 C-8.03880778 -0.50101217 -5.14843558 -0.56164752 0 0 Z " fill="#F6F6F6" transform="translate(149,101)"/>
<path d="M0 0 C0.99 0.66 1.98 1.32 3 2 C3 3.32 3 4.64 3 6 C0.23723823 5.47731534 -2.3260876 4.89130413 -5 4 C-5 5.98 -5 7.96 -5 10 C-4.443125 9.67 -3.88625 9.34 -3.3125 9 C-0.69715478 7.8690399 1.1806646 7.84337026 4 8 C3.42655063 10.86724686 3.1385485 11.8614515 1 14 C-1.05859375 14.30078125 -1.05859375 14.30078125 -3.4375 14.3125 C-4.61119141 14.33763672 -4.61119141 14.33763672 -5.80859375 14.36328125 C-8.52504882 13.91295982 -9.38559747 13.20330408 -11 11 C-11.49573337 7.10495209 -11.58016848 4.90506283 -9.4375 1.5625 C-6.11598609 -0.56667558 -3.87338754 -0.42255137 0 0 Z " fill="#DFDFDF" transform="translate(133,101)"/>
<path d="M0 0 C0.70125 0.01417969 1.4025 0.02835937 2.125 0.04296875 C3.176875 0.05263672 3.176875 0.05263672 4.25 0.0625 C6.125 0.23046875 6.125 0.23046875 8.125 1.23046875 C8.125 2.22046875 8.125 3.21046875 8.125 4.23046875 C5.815 3.90046875 3.505 3.57046875 1.125 3.23046875 C1.125 3.89046875 1.125 4.55046875 1.125 5.23046875 C2.07375 5.35421875 3.0225 5.47796875 4 5.60546875 C7.125 6.23046875 7.125 6.23046875 9.125 8.23046875 C8.56944444 12.78602431 8.56944444 12.78602431 7.125 14.23046875 C5.43891034 14.30252386 3.74999341 14.31432943 2.0625 14.29296875 C1.14339844 14.28394531 0.22429687 14.27492188 -0.72265625 14.265625 C-1.43292969 14.25402344 -2.14320313 14.24242188 -2.875 14.23046875 C-3.205 12.91046875 -3.535 11.59046875 -3.875 10.23046875 C-1.235 10.56046875 1.405 10.89046875 4.125 11.23046875 C4.125 10.57046875 4.125 9.91046875 4.125 9.23046875 C2.990625 9.08609375 1.85625 8.94171875 0.6875 8.79296875 C-2.875 8.23046875 -2.875 8.23046875 -3.875 7.23046875 C-4.0625 4.79296875 -4.0625 4.79296875 -3.875 2.23046875 C-1.875 0.23046875 -1.875 0.23046875 0 0 Z " fill="#EEEEEE" transform="translate(158.875,100.76953125)"/>
<path d="M0 0 C1.98 0 3.96 0 6 0 C6.33 1.65 6.66 3.3 7 5 C9.2236068 3.0745356 9.2236068 3.0745356 10 0 C11.65 0 13.3 0 15 0 C14.00956295 4.83628305 13.04301154 9.47618873 11 14 C8.69 14 6.38 14 4 14 C3.32968281 12.0429132 2.66385317 10.08428887 2 8.125 C1.62875 7.03445312 1.2575 5.94390625 0.875 4.8203125 C0 2 0 2 0 0 Z " fill="#E9E9E9" transform="translate(82,101)"/>
<path d="M0 0 C1.875 1.1875 1.875 1.1875 3 3 C3 4.65 3 6.3 3 8 C-0.3 8 -3.6 8 -7 8 C-6.34 9.32 -5.68 10.64 -5 12 C-1.95613276 12.08226668 0.07175348 11.97608217 3 11 C2.67 11.99 2.34 12.98 2 14 C-1.25 14.8125 -1.25 14.8125 -5 15 C-8.30283403 12.28998233 -8.92621954 10.61132379 -9.4375 6.375 C-9 3 -9 3 -7.875 1.0625 C-5.11019567 -0.50422245 -3.11811483 -0.38976435 0 0 Z " fill="#C4C4C4" transform="translate(135,75)"/>
<path d="M0 0 C2.5 0.25 2.5 0.25 4.5 2.25 C4.83 1.59 5.16 0.93 5.5 0.25 C6.16 0.25 6.82 0.25 7.5 0.25 C7.5 3.55 7.5 6.85 7.5 10.25 C6.84 10.25 6.18 10.25 5.5 10.25 C5.17 9.59 4.84 8.93 4.5 8.25 C3.84 8.91 3.18 9.57 2.5 10.25 C0 10.5625 0 10.5625 -2.5 10.25 C-4.64915785 7.02626323 -4.88286803 5.98296326 -4.5 2.25 C-2.5 0.25 -2.5 0.25 0 0 Z " fill="#A4A4A4" transform="translate(72.5,160.75)"/>
<path d="M0 0 C0.66 0 1.32 0 2 0 C2.33 0.66 2.66 1.32 3 2 C3.66 1.34 4.32 0.68 5 0 C7.625 -0.125 7.625 -0.125 10 0 C10.33 0.66 10.66 1.32 11 2 C9.35 2 7.7 2 6 2 C8.475 3.98 8.475 3.98 11 6 C10.67 7.32 10.34 8.64 10 10 C6.66666667 10 3.33333333 10 0 10 C0 6.7 0 3.4 0 0 Z " fill="#868686" transform="translate(47,175)"/>
<path d="M0 0 C3.625 0.375 3.625 0.375 7 1 C7.09765625 7.15234375 7.09765625 7.15234375 7 9 C6 10 6 10 3.0625 10.25 C2.051875 10.1675 1.04125 10.085 0 10 C-2.14915785 6.77626323 -2.38286803 5.73296326 -2 2 C-1.34 1.34 -0.68 0.68 0 0 Z " fill="#A2A2A2" transform="translate(39,161)"/>
<path d="M0 0 C1.99954746 -0.04254356 4.00041636 -0.04080783 6 0 C7.89488952 1.89488952 7.18019112 4.57139146 7.23046875 7.08984375 C7 9 7 9 5 11 C0.44444444 10.44444444 0.44444444 10.44444444 -1 9 C-1.23728814 2.47457627 -1.23728814 2.47457627 0 0 Z " fill="#0C0C0C" transform="translate(114,77)"/>
<path d="M0 0 C3 0.125 3 0.125 4 1.125 C4.1875 4.5625 4.1875 4.5625 4 8.125 C2 10.125 2 10.125 -0.5 10.4375 C-1.7375 10.2828125 -1.7375 10.2828125 -3 10.125 C-5 7.125 -5 7.125 -4.6875 4 C-3.76852699 0.15702196 -3.76852699 0.15702196 0 0 Z " fill="#9F9F9F" transform="translate(51,188.875)"/>
<path d="M0 0 C2.33294775 -0.04241723 4.66702567 -0.04092937 7 0 C8 1 8 1 8.1875 4.4375 C8 8 8 8 6 10 C2.875 10.125 2.875 10.125 0 10 C0 6.7 0 3.4 0 0 Z " fill="#505050" transform="translate(57,189)"/>
<path d="M0 0 C3.3 0 6.6 0 10 0 C10 3.63 10 7.26 10 11 C9.01 10.67 8.02 10.34 7 10 C6.3125 7.9375 6.3125 7.9375 6 6 C4.35 6 2.7 6 1 6 C0.67 7.32 0.34 8.64 0 10 C0 6.7 0 3.4 0 0 Z " fill="#979797" transform="translate(57,161)"/>
<path d="M0 0 C1.65 0 3.3 0 5 0 C5 4.62 5 9.24 5 14 C3.35 14 1.7 14 0 14 C0 9.38 0 4.76 0 0 Z " fill="#F4F4F4" transform="translate(115,101)"/>
<path d="M0 0 C0.66 0 1.32 0 2 0 C5 6.5 5 6.5 5 11 C5.66 11 6.32 11 7 11 C7.12375 10.113125 7.2475 9.22625 7.375 8.3125 C7.94412736 5.29612498 8.76614436 2.79673946 10 0 C10.66 0 11.32 0 12 0 C7.12391931 16.87608069 7.12391931 16.87608069 4 20 C3.01 20 2.02 20 1 20 C1 19.34 1 18.68 1 18 C1.99 18 2.98 18 4 18 C3.41632611 11.69632197 1.95928381 6.01339937 0 0 Z " fill="#C5C5C5" transform="translate(96,75)"/>
<path d="M0 0 C0.66 1.32 1.32 2.64 2 4 C-0.64 3.34 -3.28 2.68 -6 2 C-6 4.97 -6 7.94 -6 11 C-3.08517222 11.80967438 -1.53886783 12.21845993 1.3125 11.0625 C1.869375 10.711875 2.42625 10.36125 3 10 C2.375 11.9375 2.375 11.9375 1 14 C-1.875 15 -1.875 15 -5 15 C-7.375 13.5625 -7.375 13.5625 -9 11 C-9.63360845 7.45464037 -9.68719102 4.22167292 -7.875 1 C-5.21065116 -0.42098605 -2.96508915 -0.19767261 0 0 Z " fill="#BDBDBD" transform="translate(91,75)"/>
<path d="M0 0 C0.33 0 0.66 0 1 0 C1.33 1.65 1.66 3.3 2 5 C4.31 5.66 6.62 6.32 9 7 C9 7.66 9 8.32 9 9 C6.36 8.67 3.72 8.34 1 8 C0.67 8.66 0.34 9.32 0 10 C-7.42857143 9 -7.42857143 9 -11 8 C-11 7.34 -11 6.68 -11 6 C-7.7 5.67 -4.4 5.34 -1 5 C-0.67 3.35 -0.34 1.7 0 0 Z " fill="#444444" transform="translate(154,103)"/>
<path d="M0 0 C0.99 0.33 1.98 0.66 3 1 C3.94921875 3.06640625 3.94921875 3.06640625 4.6875 5.5625 C5.06455078 6.80193359 5.06455078 6.80193359 5.44921875 8.06640625 C5.63097656 8.70449219 5.81273437 9.34257812 6 10 C5.34 10 4.68 10 4 10 C4 9.34 4 8.68 4 8 C2.35 8 0.7 8 -1 8 C-1 8.66 -1 9.32 -1 10 C-1.66 10 -2.32 10 -3 10 C-2.01 6.7 -1.02 3.4 0 0 Z " fill="#5C5C5C" transform="translate(40,175)"/>
<path d="M0 0 C1.98 0 3.96 0 6 0 C6.38218767 1.65614657 6.71395102 3.32457024 7 5 C6 6 6 6 3.4375 6.0625 C2.2309375 6.0315625 2.2309375 6.0315625 1 6 C0.67 7.32 0.34 8.64 0 10 C0 6.7 0 3.4 0 0 Z " fill="#797979" transform="translate(38,189)"/>
<path d="M0 0 C0.99 0.33 1.98 0.66 3 1 C3.73046875 3.06640625 3.73046875 3.06640625 4.1875 5.5625 C4.34605469 6.38878906 4.50460938 7.21507812 4.66796875 8.06640625 C4.77753906 8.70449219 4.88710937 9.34257812 5 10 C4.34 9.67 3.68 9.34 3 9 C3 8.34 3 7.68 3 7 C1.68 7 0.36 7 -1 7 C-1.33 7.99 -1.66 8.98 -2 10 C-3.39195915 5.82412255 -1.82323219 3.86525224 0 0 Z " fill="#666666" transform="translate(80,189)"/>
<path d="M0 0 C0.99 0.33 1.98 0.66 3 1 C3.94921875 3.06640625 3.94921875 3.06640625 4.6875 5.5625 C5.06455078 6.80193359 5.06455078 6.80193359 5.44921875 8.06640625 C5.63097656 8.70449219 5.81273438 9.34257812 6 10 C5.34 10 4.68 10 4 10 C3.67 9.34 3.34 8.68 3 8 C0.97536745 7.34786708 0.97536745 7.34786708 -1 7 C-1 7.99 -1 8.98 -1 10 C-1.66 10 -2.32 10 -3 10 C-2.01 6.7 -1.02 3.4 0 0 Z " fill="#858585" transform="translate(62,175)"/>
<path d="M0 0 C0.33 1.32 0.66 2.64 1 4 C2.65 4 4.3 4 6 4 C6 2.68 6 1.36 6 0 C6.66 0 7.32 0 8 0 C8 3.3 8 6.6 8 10 C7.34 10 6.68 10 6 10 C6 8.68 6 7.36 6 6 C4.35 6 2.7 6 1 6 C0.67 7.32 0.34 8.64 0 10 C0 6.7 0 3.4 0 0 Z " fill="#505050" transform="translate(47,147)"/>
<path d="M0 0 C0.66 0 1.32 0 2 0 C5.125 6.625 5.125 6.625 4 10 C3.67 9.01 3.34 8.02 3 7 C1.68 7 0.36 7 -1 7 C-1 7.99 -1 8.98 -1 10 C-1.66 10 -2.32 10 -3 10 C-1.125 2.25 -1.125 2.25 0 0 Z " fill="#5D5D5D" transform="translate(85,161)"/>
<path d="M0 0 C0 3.63 0 7.26 0 11 C-0.763125 10.175 -1.52625 9.35 -2.3125 8.5 C-4.75434142 5.65944803 -4.75434142 5.65944803 -8 6 C-7.0479279 4.99403703 -6.08812654 3.99538437 -5.125 3 C-4.59132812 2.443125 -4.05765625 1.88625 -3.5078125 1.3125 C-2 0 -2 0 0 0 Z " fill="#F59937" transform="translate(178,34)"/>
<path d="M0 0 C2.31 0 4.62 0 7 0 C7 0.66 7 1.32 7 2 C5.68 2.33 4.36 2.66 3 3 C2.67 6.63 2.34 10.26 2 14 C1.34 14 0.68 14 0 14 C0 9.38 0 4.76 0 0 Z " fill="#C4C4C4" transform="translate(142,75)"/>
<path d="M0 0 C1.98 0 3.96 0 6 0 C4.68 0.33 3.36 0.66 2 1 C2 1.99 2 2.98 2 4 C3.32 4 4.64 4 6 4 C6 4.66 6 5.32 6 6 C4.68 6 3.36 6 2 6 C2 6.99 2 7.98 2 9 C3.32 9.33 4.64 9.66 6 10 C4.02 10 2.04 10 0 10 C0 6.7 0 3.4 0 0 Z " fill="#4B4B4B" transform="translate(57,147)"/>
<path d="M0 0 C4.75 0.75 4.75 0.75 7 3 C7 4.65 7 6.3 7 8 C3.37 8 -0.26 8 -4 8 C-4 7.34 -4 6.68 -4 6 C-1.03 6 1.94 6 5 6 C3.35143175 1.87596527 3.35143175 1.87596527 0 0 Z " fill="#CECECE" transform="translate(131,75)"/>
<path d="M0 0 C1.32 0.33 2.64 0.66 4 1 C4.625 3.375 4.625 3.375 5 6 C4.34 6.66 3.68 7.32 3 8 C2.01 8 1.02 8 0 8 C0 5.36 0 2.72 0 0 Z " fill="#F2F2F2" transform="translate(59,190)"/>
<path d="M0 0 C2 3 2 3 2 5 C3.32 5 4.64 5 6 5 C4.46126823 8.71860179 3.52488612 9.35633541 0 12 C0 8.04 0 4.08 0 0 Z " fill="#2BA1D7" transform="translate(72,140)"/>
<path d="M0 0 C2.31 0 4.62 0 7 0 C7 0.33 7 0.66 7 1 C5.35 1 3.7 1 2 1 C2 1.99 2 2.98 2 4 C3.32 4 4.64 4 6 4 C6 4.66 6 5.32 6 6 C4.68 6 3.36 6 2 6 C2 7.32 2 8.64 2 10 C1.34 10 0.68 10 0 10 C0 6.7 0 3.4 0 0 Z " fill="#5E5E5E" transform="translate(48,161)"/>
<path d="M0 0 C-0.66 1.32 -1.32 2.64 -2 4 C-4.97 4 -7.94 4 -11 4 C-11.33 3.34 -11.66 2.68 -12 2 C-11.401875 1.855625 -10.80375 1.71125 -10.1875 1.5625 C-3.7201087 -0.10054348 -3.7201087 -0.10054348 0 0 Z " fill="#EDEDED" transform="translate(152,111)"/>
<path d="M0 0 C0 3.3 0 6.6 0 10 C-3 6 -3 6 -3 4 C-4.32 4 -5.64 4 -7 4 C-7 3.01 -7 2.02 -7 1 C-1.125 0 -1.125 0 0 0 Z " fill="#D6D6D6" transform="translate(57,161)"/>
<path d="M0 0 C0.33 1.32 0.66 2.64 1 4 C-1.97411124 5.23921302 -4.85262818 6.30058404 -8 7 C-8 5.02 -8 3.04 -8 1 C-4 2 -4 2 0 3 C0 2.01 0 1.02 0 0 Z " fill="#1A1A1A" transform="translate(136,104)"/>
<path d="M0 0 C1.70428601 2.55642901 2.07200864 3.61295355 1.5 6.6875 C0 9 0 9 -2.875 9.875 C-5.58599578 9.98343983 -7.46346142 9.87803259 -10 9 C-8.8125 7.4375 -8.8125 7.4375 -7 6 C-4.3125 6.3125 -4.3125 6.3125 -2 7 C-1.34 4.69 -0.68 2.38 0 0 Z " fill="#B5B5B5" transform="translate(121,80)"/>
<path d="M0 0 C2.64 0 5.28 0 8 0 C7.01 0.33 6.02 0.66 5 1 C5 3.97 5 6.94 5 10 C4.34 10 3.68 10 3 10 C3 7.36 3 4.72 3 2 C2.01 2 1.02 2 0 2 C0 1.34 0 0.68 0 0 Z " fill="#686868" transform="translate(37,147)"/>
<path d="M0 0 C1.98 0 3.96 0 6 0 C6.33 1.32 6.66 2.64 7 4 C4.36 4 1.72 4 -1 4 C-0.67 2.68 -0.34 1.36 0 0 Z " fill="#0B0B0B" transform="translate(129,77)"/>
<path d="M0 0 C2.31 1.65 4.62 3.3 7 5 C6.67 6.32 6.34 7.64 6 9 C4.02 9 2.04 9 0 9 C-0.33 8.01 -0.66 7.02 -1 6 C0.98 6.66 2.96 7.32 5 8 C5 7.01 5 6.02 5 5 C2.525 4.01 2.525 4.01 0 3 C0 2.01 0 1.02 0 0 Z " fill="#515151" transform="translate(87,190)"/>
<path d="M0 0 C0.66 0 1.32 0 2 0 C1.54636829 1.58468677 1.08688548 3.16769924 0.625 4.75 C0.36976562 5.63171875 0.11453125 6.5134375 -0.1484375 7.421875 C-0.9209934 9.76080572 -1.83625676 11.83442562 -3 14 C-3 13.34 -3 12.68 -3 12 C-3.66 11.67 -4.32 11.34 -5 11 C-4.34 11 -3.68 11 -3 11 C-2.87625 10.113125 -2.7525 9.22625 -2.625 8.3125 C-2.05587264 5.29612498 -1.23385564 2.79673946 0 0 Z " fill="#B7B7B7" transform="translate(106,75)"/>
<path d="M0 0 C1.485 0.99 1.485 0.99 3 2 C5.84120234 1.64484971 8.28047752 0.90650749 11 0 C10.375 1.9375 10.375 1.9375 9 4 C6.0625 4.9375 6.0625 4.9375 3 5 C1.125 3.6875 1.125 3.6875 0 2 C0 1.34 0 0.68 0 0 Z " fill="#C5C5C5" transform="translate(83,85)"/>
<path d="M0 0 C-0.99 0.33 -1.98 0.66 -3 1 C-3 1.99 -3 2.98 -3 4 C-4.98 4 -6.96 4 -9 4 C-8 1 -8 1 -5.625 -0.25 C-3 -1 -3 -1 0 0 Z " fill="#999999" transform="translate(152,103)"/>
<path d="M0 0 C1.1446875 0.3403125 1.1446875 0.3403125 2.3125 0.6875 C2.3125 1.0175 2.3125 1.3475 2.3125 1.6875 C0.6625 1.6875 -0.9875 1.6875 -2.6875 1.6875 C-3.0175 4.3275 -3.3475 6.9675 -3.6875 9.6875 C-4.3475 9.6875 -5.0075 9.6875 -5.6875 9.6875 C-6.04924071 3.29674751 -6.04924071 3.29674751 -4.5 0.6875 C-2.6875 -0.3125 -2.6875 -0.3125 0 0 Z " fill="#B0B0B0" transform="translate(131.6875,75.3125)"/>
<path d="M0 0 C1.65 0 3.3 0 5 0 C5.33 0.99 5.66 1.98 6 3 C5.34 3.66 4.68 4.32 4 5 C2.68 4.34 1.36 3.68 0 3 C0 2.01 0 1.02 0 0 Z " fill="#B2B2B2" transform="translate(88,189)"/>
<path d="M0 0 C0.99 0 1.98 0 3 0 C3 1.98 3 3.96 3 6 C1.68 5.67 0.36 5.34 -1 5 C-0.67 3.35 -0.34 1.7 0 0 Z " fill="#181818" transform="translate(104,105)"/>
<path d="M0 0 C0 0.33 0 0.66 0 1 C-1.670625 1.433125 -1.670625 1.433125 -3.375 1.875 C-7.00291092 2.69241329 -7.00291092 2.69241329 -9 5 C-9.64767793 7.57061311 -9.64767793 7.57061311 -10 10 C-10.33 10 -10.66 10 -11 10 C-11.31785906 6.50355037 -11.39644605 4.602598 -9.4375 1.625 C-6.18317497 -0.54455002 -3.82869586 -0.29451507 0 0 Z " fill="#CBCBCB" transform="translate(149,101)"/>
<path d="M0 0 C0.33 0.66 0.66 1.32 1 2 C2.32 1.67 3.64 1.34 5 1 C5.66 2.65 6.32 4.3 7 6 C6.34 6 5.68 6 5 6 C4.67 5.34 4.34 4.68 4 4 C1.97536745 3.34786708 1.97536745 3.34786708 0 3 C0 3.99 0 4.98 0 6 C-0.66 6 -1.32 6 -2 6 C-1.34 4.02 -0.68 2.04 0 0 Z " fill="#3F3F3F" transform="translate(61,179)"/>
<path d="M0 0 C0.33 0 0.66 0 1 0 C1 1.65 1 3.3 1 5 C1.66 5 2.32 5 3 5 C3 6.98 3 8.96 3 11 C2.01 10.67 1.02 10.34 0 10 C0 6.7 0 3.4 0 0 Z " fill="#DFDFDF" transform="translate(80,161)"/>
<path d="M0 0 C0.99 0.66 1.98 1.32 3 2 C2.1875 4.9375 2.1875 4.9375 1 8 C0.01 8.33 -0.98 8.66 -2 9 C-1.34 6.03 -0.68 3.06 0 0 Z " fill="#1C1C1C" transform="translate(97,101)"/>
<path d="M0 0 C0.99 0.33 1.98 0.66 3 1 C3.33 1.99 3.66 2.98 4 4 C3.67 4.66 3.34 5.32 3 6 C2.01 6 1.02 6 0 6 C-1 3 -1 3 0 0 Z " fill="#7E7E7E" transform="translate(40,175)"/>
<path d="M0 0 C1.32 0 2.64 0 4 0 C4 1.32 4 2.64 4 4 C2.35 4 0.7 4 -1 4 C-0.67 2.68 -0.34 1.36 0 0 Z " fill="#DEDEDE" transform="translate(116,95)"/>
<path d="M0 0 C1 2 1 2 0.0625 5.125 C-0.288125 6.07375 -0.63875 7.0225 -1 8 C-1.66 7.34 -2.32 6.68 -3 6 C-2.63318342 3.06546739 -2.13562754 2.13562754 0 0 Z " fill="#F59A39" transform="translate(169,41)"/>
</svg>
