<?xml version="1.0" encoding="UTF-8"?>
<svg version="1.1" xmlns="http://www.w3.org/2000/svg" width="232" height="232">
<path d="M0 0 C76.56 0 153.12 0 232 0 C232 76.56 232 153.12 232 232 C155.44 232 78.88 232 0 232 C0 155.44 0 78.88 0 0 Z " fill="#FCFCFC" transform="translate(0,0)"/>
<path d="M0 0 C0.89396484 -0.00773437 1.78792969 -0.01546875 2.70898438 -0.0234375 C8.28708455 -0.00711533 13.08431556 0.67590142 18.4375 2.25 C18.664375 3.44625 18.89125 4.6425 19.125 5.875 C20.38966739 10.93366954 22.74434717 14.55814758 27.265625 17.3984375 C29.90227336 18.43223128 31.98444465 18.51584345 34.8125 18.5 C35.72773438 18.50515625 36.64296875 18.5103125 37.5859375 18.515625 C40.77096238 18.21893775 43.44740869 17.36136137 46.4375 16.25 C57.87954308 26.47480445 68.29507298 40.54162852 69.4375 56.25 C68.32375 56.745 68.32375 56.745 67.1875 57.25 C62.86993748 60.39004547 60.92882059 64.31200212 60.05078125 69.5625 C59.78771077 74.93276641 60.84984467 78.08056272 64.4375 82.25 C67.0466387 84.57277416 67.0466387 84.57277416 69.4375 86.25 C67.37156577 100.7115396 59.14930255 112.74214806 49.4375 123.25 C44.6875 122.375 44.6875 122.375 42.4375 121.25 C36.09111732 120.42426248 31.31193526 120.99788518 26.0625 124.765625 C21.68983411 128.75988712 21.00431365 133.58186347 20.4375 139.25 C7.30735967 143.50021884 -6.18572927 143.48584951 -19.5625 140.25 C-19.66046875 139.58613281 -19.7584375 138.92226562 -19.859375 138.23828125 C-20.75729756 132.93589374 -21.44896364 129.02074166 -25.5625 125.25 C-30.09808864 122.26063476 -34.22617387 121.56662867 -39.5625 122.25 C-40.92075001 122.71746654 -42.27504046 123.19660562 -43.625 123.6875 C-47.5625 124.25 -47.5625 124.25 -49.3046875 123.31640625 C-58.52271787 114.79928603 -66.09265559 101.18857163 -68.625 88.9375 C-68.5625 85.25 -68.5625 85.25 -66.25 82.5 C-65.363125 81.7575 -64.47625 81.015 -63.5625 80.25 C-60.78815159 75.81481717 -61.04912482 71.31957995 -61.5625 66.25 C-63.23602956 61.49365283 -65.46267359 59.1309591 -69.5625 56.25 C-66.67941279 43.40255874 -61.28806056 33.09162064 -52.5625 23.25 C-51.93859375 22.52039063 -51.3146875 21.79078125 -50.671875 21.0390625 C-49.0470969 19.25180659 -47.51796568 17.66686347 -45.5625 16.25 C-43.1875 16.3125 -43.1875 16.3125 -40.5625 17.25 C-34.91297715 17.78654686 -30.29339866 17.69065357 -25.5625 14.25 C-22.6104453 10.48193018 -20.65298041 6.90502239 -19.5625 2.25 C-12.91038414 0.5446763 -6.85404479 -0.05955723 0 0 Z " fill="#060606" transform="translate(115.5625,18.75)"/>
<path d="M0 0 C4.2502579 2.50015171 6.9531181 5.40623621 9.1875 9.875 C9.99013766 15.8185827 9.82499151 20.69203502 6.625 25.875 C3.13007441 30.43963413 -0.28567327 32.39406908 -6.046875 33.1796875 C-12.70853852 33.55971528 -16.07069291 31.23600055 -21.0625 26.9375 C-24.47066893 22.92072948 -25.23896104 19.19090902 -25.05078125 13.921875 C-24.42214068 8.52174946 -22.29463062 4.9265046 -18.25 1.4375 C-12.30498 -2.64970125 -6.66248294 -1.96597857 0 0 Z " fill="#F8F8F8" transform="translate(86.8125,53.125)"/>
<path d="M0 0 C4.71211658 2.68255326 8.04883174 5.88779883 9.7109375 11.125 C10.57057735 16.78676593 10.01374611 21.3306004 6.7109375 26.125 C2.20568832 30.56767628 -1.02749655 33.26872315 -7.4765625 33.5 C-12.23444368 33.43772407 -15.21603946 32.84554375 -18.8515625 29.734375 C-23.23377792 24.82819904 -24.94795304 19.78759685 -24.609375 13.23046875 C-23.92023783 8.7006525 -22.17545154 5.94320527 -18.8515625 2.875 C-12.90275843 -1.1875979 -6.98939067 -2.67171247 0 0 Z " fill="#F9F9F9" transform="translate(123.2890625,115.875)"/>
<path d="M0 0 C4.50395209 2.29148439 7.93093464 5.71712246 9.90625 10.34375 C10.8957886 16.29040578 10.32458996 21.27517696 6.90625 26.34375 C3.27475488 30.54863908 0.40601363 32.84666265 -5.12890625 33.6328125 C-10.39604528 33.97612516 -14.05241203 33.02103574 -18.36328125 29.94921875 C-22.73707218 25.89136757 -24.30398846 21.21352739 -24.71875 15.34375 C-24.4827528 9.67107652 -22.01586912 6.27529729 -18.09375 2.34375 C-13.32178556 -2.01918892 -5.96525816 -1.86970778 0 0 Z " fill="#F9F9F9" transform="translate(159.09375,52.65625)"/>
<path d="M0 0 C4.59047821 2.63527453 7.99478431 6.17706863 10.375 10.9375 C11.13957906 16.68636025 11.21806022 21.56465054 7.8125 26.4375 C4.1360682 30.6195483 0.50156459 32.54481542 -5.08203125 33.24609375 C-9.27780593 33.4536808 -12.07641819 33.18591441 -15.9375 31.4375 C-20.77943562 26.93337384 -23.87522171 22.70433023 -24.25 15.9375 C-23.94761683 10.62536328 -22.19892324 6.85437547 -18.625 2.9375 C-12.79651062 -2.07047389 -6.99881618 -2.05137716 0 0 Z " fill="#F9F9F9" transform="translate(158.625,93.0625)"/>
<path d="M0 0 C4.53032771 1.72439853 7.83044464 4.25700823 10.5 8.3125 C12.8241085 14.0259334 12.69193301 17.85136592 10.8125 23.6875 C8.46825854 27.97180336 5.9836448 30.84287387 1.75 33.3125 C-4.02007736 34.75501934 -8.99939441 34.94401559 -14.3125 32 C-18.41409017 29.08549681 -20.62375655 25.8298355 -22 21 C-22.83245671 15.35460394 -22.37324663 10.74362808 -19 6 C-13.46906861 0.10305109 -7.94481319 -1.52651432 0 0 Z " fill="#F9F9F9" transform="translate(121,73)"/>
<path d="M0 0 C4.25814706 4.01670573 6.13701335 7.85682715 6.375 13.6875 C6.31829997 19.22790301 4.64508497 22.86824156 1 27 C-4.33689743 30.93913858 -9.52468252 31.74466151 -16 31 C-21.27577468 29.35655432 -24.44770951 25.95282176 -27.12109375 21.21484375 C-29.09599751 16.23808627 -28.60023463 11.80070388 -26.9375 6.8125 C-24.180735 2.81074436 -20.7274039 -1.1172937 -15.984375 -2.65234375 C-9.91955358 -3.71488136 -5.3833359 -2.99074217 0 0 Z " fill="#F9F9F9" transform="translate(90,95)"/>
<path d="M0 0 C4.45857283 2.44139328 7.68355318 5.53385757 9.6875 10.3125 C9.749375 10.993125 9.81125 11.67375 9.875 12.375 C10.0296875 13.98375 10.0296875 13.98375 10.1875 15.625 C9.69439793 21.54222488 7.61001541 25.72461949 3.3125 29.8125 C-2.02662343 33.23501502 -7.98197506 33.33023649 -14.125 32.375 C-18.28210935 30.0654948 -21.05635767 27.02249026 -23.625 23.0625 C-24.68550199 17.36230178 -25.09572087 12.35377715 -22.5 7.0625 C-16.18824444 -0.07974971 -9.53821203 -4.34538582 0 0 Z " fill="#969696" transform="translate(123.125,31.625)"/>
<path d="M0 0 C1.98 0 3.96 0 6 0 C6.33 2.64 6.66 5.28 7 8 C7.35449219 7.4225 7.70898438 6.845 8.07421875 6.25 C10.73759359 2.5354627 12.65765254 0.34258684 17.18359375 -0.8125 C20.73807074 -1.00616049 23.56183973 -0.93727043 27 0 C29.53017743 2.35271007 30.82585885 4.77291267 32 8 C32.27972656 7.4225 32.55945313 6.845 32.84765625 6.25 C34.09120051 3.94684407 35.26190188 1.96181372 37 0 C40.8125 -0.5 40.8125 -0.5 44 0 C43.13375 1.546875 43.13375 1.546875 42.25 3.125 C41.88777344 3.77339844 41.52554688 4.42179688 41.15234375 5.08984375 C40 7 40 7 37.8125 9.6875 C35.13345631 14.5836833 35.17811479 19.49625298 35 25 C33.02 25 31.04 25 29 25 C29.00902344 24.32195312 29.01804687 23.64390625 29.02734375 22.9453125 C28.76893712 14.83359125 26.13135835 10.17638694 21 4 C18.03815191 5.30371946 16.24229694 6.57928724 14.25 9.125 C13.5075 10.07375 12.765 11.0225 12 12 C12.721875 12.77085937 13.44375 13.54171875 14.1875 14.3359375 C15.12525968 15.34871795 16.06274557 16.36175196 17 17.375 C17.47695312 17.88289063 17.95390625 18.39078125 18.4453125 18.9140625 C22 22.7734375 22 22.7734375 22 25 C16.97927461 25.79274611 16.97927461 25.79274611 14 25 C11.18889737 22.30449411 9.08245528 19.27986706 7 16 C6.67 18.97 6.34 21.94 6 25 C4.02 25 2.04 25 0 25 C0 16.75 0 8.5 0 0 Z " fill="#161819" transform="translate(91,173)"/>
<path d="M0 0 C13.27211538 -0.49615385 13.27211538 -0.49615385 16.95703125 2.015625 C17.63121094 2.67046875 18.30539063 3.3253125 19 4 C18.835 4.928125 18.67 5.85625 18.5 6.8125 C17.70049416 11.7017878 17.70049416 11.7017878 20 16 C20 19 20 19 19 22 C13.65260682 26.45616098 6.55175116 25.20056381 0 25 C0 16.75 0 8.5 0 0 Z " fill="#1F2021" transform="translate(141,173)"/>
<path d="M0 0 C13.125 -0.53571429 13.125 -0.53571429 16.8125 1.625 C19 4 19 4 19.625 7 C18.88946638 10.53056137 17.75999237 11.7575062 15 14 C16.44950455 17.7910119 18.15172566 21.3874638 20 25 C17.69 25 15.38 25 13 25 C12.66226563 24.36191406 12.32453125 23.72382813 11.9765625 23.06640625 C11.53054687 22.24011719 11.08453125 21.41382813 10.625 20.5625 C10.18414062 19.73878906 9.74328125 18.91507813 9.2890625 18.06640625 C8.16581441 15.86533422 8.16581441 15.86533422 6 15 C6 18.3 6 21.6 6 25 C4.02 25 2.04 25 0 25 C0 16.75 0 8.5 0 0 Z " fill="#151618" transform="translate(41,173)"/>
<path d="M0 0 C6.27 0 12.54 0 19 0 C19 6.35983562 18.04529367 7.92489254 14.0625 12.25 C10.67652783 15.87382141 10.67652783 15.87382141 8 20 C11.63 20 15.26 20 19 20 C19 21.65 19 23.3 19 25 C12.73 25 6.46 25 0 25 C0 18.25 0 18.25 2.40625 15.3515625 C2.90253906 14.73925781 3.39882812 14.12695312 3.91015625 13.49609375 C4.43480469 12.87863281 4.95945313 12.26117188 5.5 11.625 C6.02464844 10.98433594 6.54929688 10.34367188 7.08984375 9.68359375 C8.38024675 8.11164828 9.68841387 6.55431474 11 5 C7.37 5 3.74 5 0 5 C0 3.35 0 1.7 0 0 Z " fill="#111314" transform="translate(171,173)"/>
<path d="M0 0 C2.9375 1.5 2.9375 1.5 5 3 C4.34 4.32 3.68 5.64 3 7 C0.36 6.67 -2.28 6.34 -5 6 C-5 6.99 -5 7.98 -5 9 C-4.44570312 9.26554688 -3.89140625 9.53109375 -3.3203125 9.8046875 C-2.59585938 10.15789062 -1.87140625 10.51109375 -1.125 10.875 C-0.04605469 11.39707031 -0.04605469 11.39707031 1.0546875 11.9296875 C3 13 3 13 5 15 C5.41275616 18.71480543 5.47674327 21.11461964 3.6875 24.4375 C-0.5860598 26.92212779 -5.17066794 26.63408024 -10 26 C-10.99 25.34 -11.98 24.68 -13 24 C-12.34 22.68 -11.68 21.36 -11 20 C-7.58900832 20 -4.36911686 20.49145406 -1 21 C-1 19.68 -1 18.36 -1 17 C-1.62648438 16.81824219 -2.25296875 16.63648438 -2.8984375 16.44921875 C-3.71570313 16.19785156 -4.53296875 15.94648438 -5.375 15.6875 C-6.18710938 15.44386719 -6.99921875 15.20023438 -7.8359375 14.94921875 C-10 14 -10 14 -12 11 C-12.61420709 6.96378195 -12.34355123 5.47888959 -9.9375 2.125 C-6.25541383 -0.5386368 -4.45883347 -0.63697621 0 0 Z " fill="#151617" transform="translate(83,172)"/>
<path d="M0 0 C1.98 0 3.96 0 6 0 C6 8.25 6 16.5 6 25 C4.02 25 2.04 25 0 25 C0 16.75 0 8.5 0 0 Z " fill="#121314" transform="translate(163,173)"/>
<path d="M0 0 C1.98 0 3.96 0 6 0 C6 8.25 6 16.5 6 25 C4.02 25 2.04 25 0 25 C0 16.75 0 8.5 0 0 Z " fill="#121314" transform="translate(62,173)"/>
<path d="M0 0 C3.63 0 7.26 0 11 0 C10.67 0.99 10.34 1.98 10 3 C8.35 3 6.7 3 5 3 C5 5.31 5 7.62 5 10 C5.99 10.33 6.98 10.66 8 11 C7.34 11.66 6.68 12.32 6 13 C5.59952556 15.32275177 5.2602896 17.65739357 5 20 C6.32 20 7.64 20 9 20 C8.67 20.99 8.34 21.98 8 23 C5.36 23 2.72 23 0 23 C0 15.41 0 7.82 0 0 Z " fill="#050708" transform="translate(142,174)"/>
<path d="M0 0 C4 1 4 1 6 3 C6.41275616 6.71480543 6.47674327 9.11461964 4.6875 12.4375 C0.4139402 14.92212779 -4.17066794 14.63408024 -9 14 C-9.99 13.34 -10.98 12.68 -12 12 C-11.34 10.68 -10.68 9.36 -10 8 C-6.58900832 8 -3.36911686 8.49145406 0 9 C0 6.03 0 3.06 0 0 Z " fill="#0A0C0D" transform="translate(82,184)"/>
<path d="M0 0 C0 8.25 0 16.5 0 25 C-3 21 -3 21 -3.3125 17.5 C-3.65777646 13.78208239 -3.65777646 13.78208239 -6.8125 11.6875 C-10.37366014 9.77792656 -10.37366014 9.77792656 -14 8 C-13.67 6.68 -13.34 5.36 -13 4 C-10.36 4.33 -7.72 4.66 -5 5 C-4.896875 4.360625 -4.79375 3.72125 -4.6875 3.0625 C-4.460625 2.381875 -4.23375 1.70125 -4 1 C-1 0 -1 0 0 0 Z " fill="#D7D7D8" transform="translate(91,173)"/>
<path d="M0 0 C0.33 0 0.66 0 1 0 C1 1.65 1 3.3 1 5 C4.96 5 8.92 5 13 5 C11.23158984 8.53682033 9.44299028 11.17829898 7 14.25 C6.29875 15.14203125 5.5975 16.0340625 4.875 16.953125 C3.946875 17.96632812 3.946875 17.96632812 3 19 C2.34 19 1.68 19 1 19 C1 20.98 1 22.96 1 25 C0.67 25 0.34 25 0 25 C0 16.75 0 8.5 0 0 Z " fill="#EDEEEE" transform="translate(169,173)"/>
<path d="M0 0 C1.65 0 3.3 0 5 0 C5 8.25 5 16.5 5 25 C3.35 25 1.7 25 0 25 C0 16.75 0 8.5 0 0 Z " fill="#07080A" transform="translate(91,173)"/>
<path d="M0 0 C0.33 1.32 0.66 2.64 1 4 C1.66 4 2.32 4 3 4 C3.144375 5.2375 3.28875 6.475 3.4375 7.75 C4.13485409 10.70720079 4.57117333 11.71463819 7.13671875 13.421875 C9.40111361 14.40299428 11.64534915 15.26356599 14 16 C14 17.32 14 18.64 14 20 C10.66666667 20 7.33333333 20 4 20 C2.68 21.65 1.36 23.3 0 25 C0 16.75 0 8.5 0 0 Z " fill="#E4E5E5" transform="translate(68,173)"/>
<path d="M0 0 C0.33 0 0.66 0 1 0 C1.33 2.64 1.66 5.28 2 8 C2.35449219 7.4225 2.70898438 6.845 3.07421875 6.25 C4.90158375 3.70142315 6.46354214 1.86552385 9 0 C13.4131213 -0.69788895 17.57008315 -0.4796301 22 0 C21.38125 0.28875 20.7625 0.5775 20.125 0.875 C17.86674235 1.93720042 17.86674235 1.93720042 16 4 C15.401875 4.28875 14.80375 4.5775 14.1875 4.875 C11.49198218 6.26126631 9.32275451 8.06437124 7 10 C7 9.01 7 8.02 7 7 C4.69 8.65 2.38 10.3 0 12 C0 8.04 0 4.08 0 0 Z " fill="#262728" transform="translate(96,173)"/>
<path d="M0 0 C1.670625 0.061875 1.670625 0.061875 3.375 0.125 C3.42922947 1.5620809 3.46789723 2.99975462 3.5 4.4375 C3.52320312 5.23800781 3.54640625 6.03851563 3.5703125 6.86328125 C3.375 9.125 3.375 9.125 1.375 12.125 C-1.25 12.3125 -1.25 12.3125 -3.625 12.125 C-3.955 11.465 -4.285 10.805 -4.625 10.125 C-2.975 10.125 -1.325 10.125 0.375 10.125 C0.375 9.465 0.375 8.805 0.375 8.125 C-1.275 7.795 -2.925 7.465 -4.625 7.125 C-5.25 4.75 -5.25 4.75 -5.625 2.125 C-3.625 0.125 -3.625 0.125 0 0 Z " fill="#535353" transform="translate(103.625,204.875)"/>
<path d="M0 0 C5.00611031 -0.56672947 7.93034032 0.04024751 12 3 C11.34 4.32 10.68 5.64 10 7 C7.36 6.67 4.72 6.34 2 6 C1.01 7.485 1.01 7.485 0 9 C-1.125 6.1875 -1.125 6.1875 -2 3 C-1.34 2.01 -0.68 1.02 0 0 Z " fill="#1C1D1E" transform="translate(76,172)"/>
<path d="M0 0 C0.66 0.33 1.32 0.66 2 1 C2 5.95 2 10.9 2 16 C1.34 16.33 0.68 16.66 0 17 C-0.86658615 15.73760288 -1.71792059 14.46472499 -2.5625 13.1875 C-3.27599609 12.12595703 -3.27599609 12.12595703 -4.00390625 11.04296875 C-5 9 -5 9 -4 6 C-3 5 -2 4 -1 3 C-0.67 2.01 -0.34 1.02 0 0 Z " fill="#F1F2F2" transform="translate(60,180)"/>
<path d="M0 0 C0.66 0 1.32 0 2 0 C2 0.66 2 1.32 2 2 C2.66 2 3.32 2 4 2 C4 2.66 4 3.32 4 4 C3.34 4 2.68 4 2 4 C2 5.65 2 7.3 2 9 C2.66 9.33 3.32 9.66 4 10 C2.68 10 1.36 10 0 10 C0 8.02 0 6.04 0 4 C-0.66 4 -1.32 4 -2 4 C-2 5.98 -2 7.96 -2 10 C-4.31 10 -6.62 10 -9 10 C-9 7.36 -9 4.72 -9 2 C-8.67 2 -8.34 2 -8 2 C-7.67 3.98 -7.34 5.96 -7 8 C-6.34 8 -5.68 8 -5 8 C-4.67 6.02 -4.34 4.04 -4 2 C-2.68 2 -1.36 2 0 2 C0 1.34 0 0.68 0 0 Z " fill="#515151" transform="translate(144,203)"/>
<path d="M0 0 C2.625 0.375 2.625 0.375 5 1 C5.625 3.375 5.625 3.375 6 6 C4 8 4 8 1.375 8.125 C0.59125 8.08375 -0.1925 8.0425 -1 8 C-1.625 5.125 -1.625 5.125 -2 2 C-1.34 1.34 -0.68 0.68 0 0 Z " fill="#444444" transform="translate(127,205)"/>
<path d="M0 0 C2.625 0.375 2.625 0.375 5 1 C5.33 2.32 5.66 3.64 6 5 C5.01 5.33 4.02 5.66 3 6 C3.66 6 4.32 6 5 6 C5 6.66 5 7.32 5 8 C3.00045254 8.04254356 0.99958364 8.04080783 -1 8 C-2 7 -2 7 -2.1875 4.5625 C-2 2 -2 2 0 0 Z " fill="#656565" transform="translate(170,205)"/>
<path d="M0 0 C0 1.32 0 2.64 0 4 C-5.28 4 -10.56 4 -16 4 C-12.7587694 0.7587694 -12.27976683 0.59909153 -8 0.3125 C-6.700625 0.21388672 -6.700625 0.21388672 -5.375 0.11328125 C-3.5849705 0.02790155 -1.79206453 0 0 0 Z " fill="#050607" transform="translate(190,193)"/>
<path d="M0 0 C1.67542976 0.28604898 3.34385343 0.61781233 5 1 C5.33 2.32 5.66 3.64 6 5 C4.35 5.33 2.7 5.66 1 6 C2.32 6 3.64 6 5 6 C5 6.66 5 7.32 5 8 C2.625 8.125 2.625 8.125 0 8 C-0.66 7.34 -1.32 6.68 -2 6 C-1.44444444 1.44444444 -1.44444444 1.44444444 0 0 Z " fill="#626262" transform="translate(184,205)"/>
<path d="M0 0 C1.65 0.33 3.3 0.66 5 1 C5 3.31 5 5.62 5 8 C3.02 8 1.04 8 -1 8 C-1 4.88742431 -0.82638376 2.89234315 0 0 Z " fill="#797979" transform="translate(66,205)"/>
<path d="M0 0 C2.625 0.375 2.625 0.375 5 1 C5 2.32 5 3.64 5 5 C3.35 5 1.7 5 0 5 C0 5.66 0 6.32 0 7 C1.65 6.67 3.3 6.34 5 6 C5 6.66 5 7.32 5 8 C3.00045254 8.04254356 0.99958364 8.04080783 -1 8 C-2 7 -2 7 -2.1875 4.5625 C-2 2 -2 2 0 0 Z " fill="#5F5F5F" transform="translate(114,205)"/>
<path d="M0 0 C1.98 0 3.96 0 6 0 C6.38218767 1.65614657 6.71395102 3.32457024 7 5 C6 6 6 6 2.9375 6.0625 C1.4834375 6.0315625 1.4834375 6.0315625 0 6 C0 4.02 0 2.04 0 0 Z " fill="#DFDFE0" transform="translate(147,187)"/>
<path d="M0 0 C0.66 0 1.32 0 2 0 C2.33 1.32 2.66 2.64 3 4 C4.32 4.33 5.64 4.66 7 5 C7 7.31 7 9.62 7 12 C6.67 12 6.34 12 6 12 C6 10.02 6 8.04 6 6 C5.01 6.33 4.02 6.66 3 7 C2.67 8.65 2.34 10.3 2 12 C1.34 12 0.68 12 0 12 C0 8.04 0 4.08 0 0 Z " fill="#444444" transform="translate(159,201)"/>
<path d="M0 0 C0 1.65 0 3.3 0 5 C-1.65614657 5.38218767 -3.32457024 5.71395102 -5 6 C-6 5 -6 5 -6.0625 2.4375 C-6.041875 1.633125 -6.02125 0.82875 -6 0 C-3.50907189 -1.24546405 -2.58919267 -0.7767578 0 0 Z " fill="#181A1B" transform="translate(138,192)"/>
<path d="M0 0 C1.84765625 0.33984375 1.84765625 0.33984375 4.0625 0.9375 C5.16271484 1.22947266 5.16271484 1.22947266 6.28515625 1.52734375 C7.13400391 1.76130859 7.13400391 1.76130859 8 2 C6.68 2.33 5.36 2.66 4 3 C4 3.99 4 4.98 4 6 C2.1875 6.625 2.1875 6.625 0 7 C-0.99 6.34 -1.98 5.68 -3 5 C-1.125 1.125 -1.125 1.125 0 0 Z " fill="#222324" transform="translate(73,191)"/>
<path d="M0 0 C0.66 0 1.32 0 2 0 C2 2.31 2 4.62 2 7 C2.66 6.67 3.32 6.34 4 6 C4.65772428 2.97065509 4.65772428 2.97065509 5 0 C5.66 0 6.32 0 7 0 C7 2.64 7 5.28 7 8 C5.00045254 8.04254356 2.99958364 8.04080783 1 8 C0 7 0 7 -0.0625 3.4375 C-0.041875 2.303125 -0.02125 1.16875 0 0 Z " fill="#4E4E4E" transform="translate(81,205)"/>
<path d="M0 0 C0.33 0 0.66 0 1 0 C1 8.25 1 16.5 1 25 C-0.32 24.67 -1.64 24.34 -3 24 C-2.67 22.68 -2.34 21.36 -2 20 C-1.34 20 -0.68 20 0 20 C0 13.4 0 6.8 0 0 Z " fill="#DFE0E0" transform="translate(140,173)"/>
<path d="M0 0 C1.98 0 3.96 0 6 0 C6.5625 1.9375 6.5625 1.9375 7 4 C6 5 6 5 2.9375 5.0625 C1.4834375 5.0315625 1.4834375 5.0315625 0 5 C0 3.35 0 1.7 0 0 Z " fill="#DCDCDD" transform="translate(147,178)"/>
<path d="M0 0 C1.99954746 -0.04254356 4.00041636 -0.04080783 6 0 C7 1 7 1 7.0625 4.5625 C7.041875 5.696875 7.02125 6.83125 7 8 C6.34 8 5.68 8 5 8 C5 6.02 5 4.04 5 2 C4.01 2.33 3.02 2.66 2 3 C1.67 4.65 1.34 6.3 1 8 C0.67 8 0.34 8 0 8 C0 5.36 0 2.72 0 0 Z " fill="#464646" transform="translate(90,205)"/>
<path d="M0 0 C1.32 0 2.64 0 4 0 C4 0.66 4 1.32 4 2 C3.01 2.495 3.01 2.495 2 3 C2.99 3.33 3.98 3.66 5 4 C4.67 5.32 4.34 6.64 4 8 C2.35 8 0.7 8 -1 8 C-1 7.34 -1 6.68 -1 6 C0.32 6.33 1.64 6.66 3 7 C3 6.34 3 5.68 3 5 C1.68 4.67 0.36 4.34 -1 4 C-0.67 2.68 -0.34 1.36 0 0 Z " fill="#464646" transform="translate(54,205)"/>
<path d="M0 0 C1.65 0 3.3 0 5 0 C5.33 1.65 5.66 3.3 6 5 C4.02 5 2.04 5 0 5 C0 3.35 0 1.7 0 0 Z " fill="#F6F6F6" transform="translate(47,178)"/>
<path d="M0 0 C0.66 0 1.32 0 2 0 C2 0.66 2 1.32 2 2 C2.66 2 3.32 2 4 2 C4 2.66 4 3.32 4 4 C3.34 4 2.68 4 2 4 C2 5.65 2 7.3 2 9 C2.66 9.33 3.32 9.66 4 10 C2.68 9.67 1.36 9.34 0 9 C-1.125 2.25 -1.125 2.25 0 0 Z " fill="#555555" transform="translate(154,203)"/>
<path d="M0 0 C0.33 0 0.66 0 1 0 C1 2.64 1 5.28 1 8 C1.66 8.33 2.32 8.66 3 9 C0.69 9 -1.62 9 -4 9 C-3.67 8.34 -3.34 7.68 -3 7 C-2.67 7 -2.34 7 -2 7 C-2 5.35 -2 3.7 -2 2 C-1.34 2 -0.68 2 0 2 C0 1.34 0 0.68 0 0 Z " fill="#E5E5E5" transform="translate(158,205)"/>
<path d="M0 0 C0.66 0 1.32 0 2 0 C2 0.66 2 1.32 2 2 C2.66 2 3.32 2 4 2 C4 2.66 4 3.32 4 4 C3.34 4 2.68 4 2 4 C2 5.65 2 7.3 2 9 C2.66 9.33 3.32 9.66 4 10 C2.68 10 1.36 10 0 10 C0 6.7 0 3.4 0 0 Z " fill="#565656" transform="translate(45,203)"/>
<path d="M0 0 C1.65 0 3.3 0 5 0 C4.67 1.65 4.34 3.3 4 5 C2.68 4.67 1.36 4.34 0 4 C0 2.68 0 1.36 0 0 Z " fill="#D7D7D7" transform="translate(100,207)"/>
<path d="M0 0 C1.65 0 3.3 0 5 0 C5 0.66 5 1.32 5 2 C4.01 2 3.02 2 2 2 C2 3.98 2 5.96 2 8 C1.34 8 0.68 8 0 8 C0 5.36 0 2.72 0 0 Z " fill="#515151" transform="translate(177,205)"/>
<path d="M0 0 C0.66 0 1.32 0 2 0 C2 2.97 2 5.94 2 9 C1.01 9.495 1.01 9.495 0 10 C-0.19412181 8.52168779 -0.38012131 7.04230684 -0.5625 5.5625 C-0.66691406 4.73878906 -0.77132812 3.91507813 -0.87890625 3.06640625 C-0.91886719 2.38449219 -0.95882812 1.70257813 -1 1 C-0.67 0.67 -0.34 0.34 0 0 Z " fill="#444444" transform="translate(105,205)"/>
<path d="M0 0 C1.65 0.33 3.3 0.66 5 1 C5 2.98 5 4.96 5 7 C4.34 6.67 3.68 6.34 3 6 C3.33 5.34 3.66 4.68 4 4 C1.525 3.01 1.525 3.01 -1 2 C-0.67 1.34 -0.34 0.68 0 0 Z " fill="#4D4D4D" transform="translate(66,205)"/>
<path d="M0 0 C1.32 0 2.64 0 4 0 C3.67 1.65 3.34 3.3 3 5 C2.01 4.67 1.02 4.34 0 4 C0 2.68 0 1.36 0 0 Z " fill="#F2F2F2" transform="translate(127,207)"/>
<path d="M0 0 C0.66 0.33 1.32 0.66 2 1 C-0.31 3.31 -2.62 5.62 -5 8 C-5 5 -5 5 -2.5 2.3125 C-1.675 1.549375 -0.85 0.78625 0 0 Z " fill="#E4E4E4" transform="translate(183,75)"/>
</svg>
